<?xml version="1.0" standalone="no"?>
<!DOCTYPE svg PUBLIC "-//W3C//DTD SVG 1.1//EN" "http://www.w3.org/Graphics/SVG/1.1/DTD/svg11.dtd" >
<svg xmlns="http://www.w3.org/2000/svg" xmlns:xlink="http://www.w3.org/1999/xlink" version="1.1">
<metadata>
Created by FontForge 20200427 at Wed Dec  3 03:37:33 2014
 By www
2010 Ole Sondergaard published by FSI FontShop International GmbH
</metadata>
<defs>
<font id="SignaWeb-CondLightItalicW03" horiz-adv-x="526" >
  <font-face 
    font-family="SignaWeb-CondLightItalicW03"
    font-weight="350"
    font-style="italic"
    font-stretch="condensed"
    units-per-em="1000"
    panose-1="2 11 5 6 3 1 1 2 1 2"
    ascent="800"
    descent="-200"
    x-height="525"
    cap-height="700"
    bbox="-594 -241 1101 888"
    underline-thickness="50"
    underline-position="-125"
    slope="-11"
    unicode-range="U+0020-FFFD"
  />
<missing-glyph horiz-adv-x="525" 
d="M72 700h381v-700h-381v700zM415 38v624h-305v-624h305z" />
    <glyph glyph-name="uniFB01" unicode="fi" horiz-adv-x="502" 
d="M468 623l14 74h-85q-24 0 -39.5 -2.5t-26 -14t-18 -34.5t-14.5 -63l-11 -58h84l-10 -57h-85l-88 -468h-76l89 468h-85l11 57h85l11 60q7 38 15.5 68.5t24 52t41.5 33t68 11.5h194l-24 -127h-75zM350 0l100 525h75l-100 -525h-75z" />
    <glyph glyph-name="uniFB02" unicode="fl" horiz-adv-x="506" 
d="M348 0l132 697h-84q-24 0 -39.5 -2.5t-26 -14t-17.5 -34.5t-14 -64l-11 -58h84l-10 -55h-85l-88 -469h-76l89 469h-85l10 55h85l12 61q7 38 15.5 68.5t24.5 52t42 33t68 11.5h191l-141 -750h-76z" />
    <glyph glyph-name=".notdef" horiz-adv-x="525" 
d="M72 700h381v-700h-381v700zM415 38v624h-305v-624h305z" />
    <glyph glyph-name="glyph1" horiz-adv-x="0" 
 />
    <glyph glyph-name="glyph1" horiz-adv-x="0" 
 />
    <glyph glyph-name="glyph2" horiz-adv-x="292" 
 />
    <glyph glyph-name="space" unicode=" " horiz-adv-x="292" 
 />
    <glyph glyph-name="exclam" unicode="!" horiz-adv-x="285" 
d="M230 180h-53l75 478h84zM127 0l18 96h85l-19 -96h-84z" />
    <glyph glyph-name="quotedbl" unicode="&#x22;" horiz-adv-x="393" 
d="M357 489h-40l30 223h76zM207 489h-39l30 223h76z" />
    <glyph glyph-name="numbersign" unicode="#" horiz-adv-x="507" 
d="M524 438h-82l-56 -175h84l-18 -54h-81l-65 -209h-58l66 209h-85l-66 -209h-57l66 209h-84l18 54h82l54 175h-82l18 53h82l65 208h58l-66 -208h85l65 208h59l-67 -208h83zM300 438l-56 -175h85l56 175h-85z" />
    <glyph glyph-name="dollar" unicode="$" horiz-adv-x="539" 
d="M490 204q-18 -93 -75 -144t-135 -66l-14 -75h-58l13 69h-15q-45 0 -83 5.5t-61 10.5l13 68q10 -2 28.5 -5t39.5 -6t42.5 -5t38.5 -2q70 0 119.5 34t60.5 94q3 15 3 27q0 28 -12 47t-29 32t-37 21t-35 15l-12 5q-17 6 -40 16.5t-43.5 28t-35 44t-14.5 64.5q0 20 4 39
q17 85 72 132t133 57l13 70h58l-13 -68q51 -2 80 -6.5t43 -6.5l-11 -63q-11 2 -26 4t-31.5 3.5t-32.5 2.5t-28 1q-28 0 -56.5 -4t-53 -16.5t-42.5 -35t-25 -59.5q-2 -7 -2 -13v-11q0 -25 10 -42.5t27 -30.5t39 -23t46 -19l12 -5q20 -8 42.5 -18t42 -26.5t32 -40.5t12.5 -60
q0 -20 -4 -39z" />
    <glyph glyph-name="percent" unicode="%" horiz-adv-x="726" 
d="M404 515q-10 -54 -26.5 -92t-38 -61.5t-46 -34t-51.5 -10.5q-45 0 -70.5 26.5t-25.5 89.5q0 34 9 82q10 54 26.5 92t38 61.5t46 34t51.5 10.5q42 0 68.5 -27.5t26.5 -92.5q0 -17 -1.5 -36t-6.5 -42zM690 187q-10 -54 -26.5 -92t-38 -61.5t-46 -34t-51.5 -10.5
q-45 0 -70.5 26.5t-25.5 89.5q0 34 9 82q10 54 26.5 91.5t38 61.5t46 34.5t51.5 10.5q42 0 68.5 -27.5t26.5 -92.5q0 -17 -1.5 -36t-6.5 -42zM162 -39l-39 35l558 747l40 -36zM342 515q4 20 5.5 37.5t1.5 31.5q0 76 -42 76q-29 0 -52.5 -37t-36.5 -108q-9 -45 -9 -75
q0 -70 43 -70q28 0 52 34.5t38 110.5zM628 187q4 20 5.5 37.5t1.5 31.5q0 76 -42 76q-28 0 -52 -37t-37 -108q-5 -23 -6.5 -41t-1.5 -33q0 -71 42 -71q29 0 52.5 34.5t37.5 110.5z" />
    <glyph glyph-name="ampersand" unicode="&#x26;" horiz-adv-x="692" 
d="M615 357l-22 -114q-25 -133 -100 -194.5t-183 -61.5q-42 0 -79 8t-64.5 26.5t-43.5 50t-16 78.5q0 27 6 60q9 46 30 76.5t48 50t56.5 30t55.5 16.5l2 11q-18 6 -35.5 15t-31.5 23t-23 34t-9 47q0 15 3 33q9 45 30 78.5t52 55t70.5 32.5t83.5 11q35 0 61.5 -2.5
t55.5 -10.5l-12 -61q-25 5 -54 8t-54 3q-21 0 -45 -5t-46 -18.5t-39 -36.5t-24 -59q-2 -6 -2 -13v-11q0 -26 11 -45t29.5 -31.5t42 -19t49.5 -6.5l-11 -57q-30 0 -63 -7t-63 -24t-52.5 -45t-30.5 -70q-2 -13 -3.5 -24t-1.5 -22q0 -35 11.5 -56.5t30 -34.5t42 -17.5
t46.5 -4.5q85 0 130 46t61 131l36 189h167l-12 -63z" />
    <glyph glyph-name="quotesingle" unicode="'" horiz-adv-x="265" 
d="M201 481h-39l32 231h76z" />
    <glyph glyph-name="parenleft" unicode="(" horiz-adv-x="358" 
d="M136 -160q-5 31 -11 90t-6 137q0 57 5 120t17 129q14 73 37.5 144.5t48.5 134t48.5 110.5t37.5 75h46q-14 -36 -31.5 -87.5t-36 -112.5t-36 -128.5t-30.5 -135.5q-14 -73 -22.5 -142.5t-13 -131.5t-6.5 -114t-2 -88h-45z" />
    <glyph glyph-name="parenright" unicode=")" horiz-adv-x="358" 
d="M329 316q-15 -79 -39 -153.5t-49.5 -137.5t-48.5 -111t-37 -74h-46q13 36 31 88t37 114t37 131.5t32 142.5q13 68 20.5 135.5t12 128.5t6.5 112.5t2 87.5h45q5 -32 11 -94t6 -141q0 -54 -4.5 -111.5t-15.5 -117.5z" />
    <glyph glyph-name="asterisk" unicode="*" horiz-adv-x="531" 
d="M397 509l76 -153l-65 -40l-59 158l-118 -158l-50 37l134 157l-148 52l37 69l137 -64l29 187h65l-42 -188l162 65l10 -69z" />
    <glyph glyph-name="plus" unicode="+" 
d="M352 313l-47 -248h-69l47 248h-201l14 71h200l45 239h69l-45 -239h200l-13 -71h-200z" />
    <glyph glyph-name="comma" unicode="," horiz-adv-x="283" 
d="M112 -125h-46l42 220h99z" />
    <glyph glyph-name="hyphen" unicode="-" horiz-adv-x="372" 
d="M118 276l10 56h215l-10 -56h-215z" />
    <glyph glyph-name="period" unicode="." horiz-adv-x="286" 
d="M81 0l19 100h88l-19 -100h-88z" />
    <glyph glyph-name="slash" unicode="/" horiz-adv-x="348" 
d="M62 -92l-54 18l403 865l53 -19z" />
    <glyph glyph-name="zero" unicode="0" 
d="M543 353q-19 -102 -48 -171.5t-65.5 -112.5t-79.5 -61.5t-89 -18.5q-39 0 -69 10.5t-51 34.5t-32 62.5t-11 93.5q0 67 18 163q19 102 48 171.5t65.5 112.5t79 61.5t89.5 18.5q36 0 66 -11t51 -35.5t33 -64.5t12 -97q0 -33 -4 -71.5t-13 -84.5zM462 353q16 86 16 152
q0 72 -21.5 112t-69.5 40q-35 0 -64 -21.5t-52 -61.5t-41 -96t-31 -125q-9 -48 -14 -89t-5 -74q0 -141 92 -141q70 0 115.5 76.5t74.5 227.5z" />
    <glyph glyph-name="one" unicode="1" 
d="M115 0l13 68h121l105 558h-121l12 63l204 24l-121 -645h124l-13 -68h-324z" />
    <glyph glyph-name="two" unicode="2" 
d="M535 514q-9 -52 -28 -92t-46.5 -74t-62.5 -65.5t-77 -66.5l-167 -139l-2 -11h294l-12 -66h-363l19 98l179 157q39 34 69 62t52 56.5t36.5 61t22.5 77.5q3 19 3 35q0 28 -9.5 47t-25 30.5t-36 16.5t-42.5 5t-44.5 -2.5t-41.5 -5.5q-11 -2 -21.5 -3.5t-21.5 -3.5l11 63
l41 8q19 3 43 5.5t50 2.5q36 0 69.5 -7t59 -23.5t41 -45t15.5 -70.5q0 -11 -1.5 -23.5t-3.5 -26.5z" />
    <glyph glyph-name="three" unicode="3" 
d="M470 195q-11 -57 -39 -96.5t-64.5 -64t-78 -35t-80.5 -10.5q-29 0 -55 2.5t-46 6.5l-44 9l13 68l39 -9q17 -4 38.5 -6.5t44.5 -2.5q24 0 53 4.5t56.5 19.5t49 43.5t30.5 75.5q3 16 3 31q0 31 -13 50t-34 30t-48 15.5t-55 6.5l12 64q36 2 67 9.5t55 22.5t40.5 39t22.5 60
q4 17 4 35q0 48 -31 65t-82 17q-20 0 -43.5 -2.5t-43.5 -5.5l-48 -8l11 62l51 9q23 4 50.5 7t55.5 3q34 0 63.5 -6.5t52 -21.5t35.5 -39t13 -60q0 -10 -1.5 -21t-3.5 -23q-7 -38 -22.5 -66.5t-36.5 -49t-46 -33t-52 -18.5l-1 -9q24 -3 44.5 -10.5t35.5 -22t24 -35.5t9 -51
q0 -11 -1 -23t-4 -26z" />
    <glyph glyph-name="four" unicode="4" 
d="M140 209h251l33 175l75 78h19l-87 -462h-79l27 144h-311l21 111l415 445h94z" />
    <glyph glyph-name="five" unicode="5" 
d="M488 226q-11 -58 -37 -103t-61.5 -75.5t-79 -46.5t-88.5 -16q-33 0 -67.5 2.5t-69.5 13.5l16 70q10 -3 19.5 -5.5t20.5 -4.5q18 -4 39.5 -6.5t43.5 -2.5q66 0 115 45t64 126q2 12 3.5 23t1.5 21q0 29 -9 49t-25 32.5t-37 18t-45 5.5q-32 0 -63 -6.5t-63 -16.5l81 351h306
l-16 -67h-232l-47 -204q15 4 27 6.5t23 3.5t21.5 1.5t23.5 0.5q60 0 100.5 -40t40.5 -118q0 -27 -6 -57z" />
    <glyph glyph-name="six" unicode="6" 
d="M521 229q-11 -59 -35 -105.5t-58 -78.5t-75 -48.5t-87 -16.5q-47 0 -79.5 14.5t-52.5 40t-28.5 59.5t-8.5 73q0 44 9 91q15 82 48.5 153t82 130.5t110.5 108.5t134 88l26 -56l-28 -17q-32 -19 -62.5 -39t-60.5 -46t-60 -61.5t-61 -86.5l8 -6q30 29 59 43.5t69 14.5
q78 0 118 -45.5t40 -130.5q0 -18 -2 -37.5t-6 -41.5zM442 229q6 31 6 59q0 57 -24.5 92.5t-78.5 35.5q-33 0 -59.5 -15t-47 -40t-34.5 -58t-21 -70q-6 -30 -6 -57q0 -57 24.5 -96.5t75.5 -39.5q34 0 61 15t47.5 40.5t34.5 60t22 73.5z" />
    <glyph glyph-name="seven" unicode="7" 
d="M221 0h-86l366 631h-317l13 69h393l-16 -85z" />
    <glyph glyph-name="eight" unicode="8" 
d="M507 180q-10 -57 -38 -95.5t-64.5 -62.5t-76.5 -34.5t-74 -10.5q-28 0 -59 7.5t-56.5 24.5t-42.5 44t-17 67q0 22 4 39q9 45 25.5 75.5t39.5 51.5t50.5 35t59.5 26l2 10q-45 21 -69.5 55.5t-24.5 83.5q0 22 4 39q19 97 80 142.5t149 45.5q75 0 117 -31.5t42 -97.5
q0 -11 -1.5 -22t-3.5 -24q-7 -34 -22.5 -60.5t-37 -46.5t-46.5 -34t-51 -23l-2 -9q25 -13 46.5 -26.5t37.5 -30.5t25 -39t9 -52q0 -10 -1.5 -21.5t-3.5 -25.5zM421 175q4 16 4 34q0 24 -7.5 41t-20.5 30q-17 17 -38.5 27.5t-42.5 20.5q-29 -13 -53 -25.5t-43.5 -30
t-33 -42.5t-20.5 -61q-4 -17 -4 -38q0 -32 11.5 -51.5t27.5 -29.5t34 -13t30 -3q16 0 39 4.5t45.5 19.5t42 43t29.5 74zM471 540q2 12 3.5 22.5t1.5 20.5q0 48 -25.5 66.5t-64.5 18.5q-21 0 -42 -5.5t-39.5 -20t-33 -39t-21.5 -61.5q-3 -15 -3 -29q0 -45 28 -71.5t64 -39.5
q10 2 29 10t39.5 24t38 41t25.5 63z" />
    <glyph glyph-name="nine" unicode="9" 
d="M552 442q-15 -82 -48.5 -152.5t-82 -130.5t-110.5 -109t-134 -88l-26 56l23 14q33 19 64 39.5t61.5 47t61 62.5t62.5 88l-8 6q-30 -29 -59 -44t-69 -15q-76 0 -116.5 45t-40.5 130q0 19 2 39.5t6 41.5q10 55 32.5 101t55 78.5t74.5 50.5t92 18q47 0 79.5 -14.5t52.5 -40
t28.5 -59.5t8.5 -73q0 -45 -9 -91zM475 467q6 30 6 57q0 57 -24.5 96.5t-75.5 39.5q-33 0 -60 -14.5t-48 -40t-35.5 -60t-21.5 -73.5q-6 -32 -6 -59q0 -56 25 -92.5t78 -36.5q33 0 59.5 15t47 40t34.5 58.5t21 69.5z" />
    <glyph glyph-name="colon" unicode=":" horiz-adv-x="286" 
d="M169 419l20 106h106l-20 -106h-106zM90 0l20 106h106l-20 -106h-106z" />
    <glyph glyph-name="semicolon" unicode=";" horiz-adv-x="286" 
d="M129 -125h-47l42 219h100zM186 424l19 101h101l-19 -101h-101z" />
    <glyph glyph-name="less" unicode="&#x3c;" 
d="M256 262l154 -262h-93l-159 262l258 263h95z" />
    <glyph glyph-name="equal" unicode="=" 
d="M144 380l14 75h382l-14 -75h-382zM104 170l14 75h382l-14 -75h-382z" />
    <glyph glyph-name="greater" unicode="&#x3e;" 
d="M215 0h-94l254 262l-156 263h95l158 -263z" />
    <glyph glyph-name="question" unicode="?" horiz-adv-x="490" 
d="M506 592q0 -61 -32.5 -108t-83.5 -89q-27 -23 -44 -40.5t-27 -34t-15 -33t-9 -35.5l-12 -64h-59l16 87q6 32 16.5 55t24.5 41.5t32 36t38 38.5q23 23 41.5 47t24.5 54q1 6 1.5 11t0.5 10q0 20 -7.5 34t-20 23t-28.5 13t-32 4q-24 0 -57 -6t-67 -14l13 71q32 9 67.5 14
t59.5 5q26 0 54 -5t51.5 -18.5t38.5 -37t15 -59.5zM179 0l18 96h85l-18 -96h-85z" />
    <glyph glyph-name="at" unicode="@" horiz-adv-x="803" 
d="M796 391q-12 -62 -33 -106.5t-47.5 -73.5t-55.5 -43t-56 -14q-26 0 -44.5 13.5t-32.5 45.5q-28 -31 -56.5 -45t-63.5 -14q-63 0 -93 34.5t-30 97.5q0 15 2 31.5t5 34.5q7 37 24.5 71.5t44 61t62 42.5t79.5 16q40 0 67.5 -4t59.5 -10l-44 -232q-3 -15 -3 -30
q0 -23 8.5 -38t26.5 -15q21 0 39.5 16.5t33.5 42.5t25.5 57.5t16.5 62.5q7 35 7 70q0 51 -15.5 92t-43.5 69.5t-67.5 44t-86.5 15.5q-54 0 -107 -27.5t-98 -73.5t-77.5 -107t-45.5 -128q-4 -19 -5.5 -37.5t-1.5 -36.5q0 -54 15 -101t42.5 -82t66.5 -55t87 -20q33 0 66.5 8
t74.5 26l-13 -71q-66 -27 -140 -27q-60 0 -109 23t-84 64.5t-54 98t-19 122.5q0 21 1.5 43t6.5 45q16 82 55.5 155t94.5 127.5t121 86t135 31.5q63 0 113 -19t84.5 -54t52.5 -85t18 -111q0 -42 -9 -88zM550 484q-24 8 -46 8q-47 0 -86 -33t-53 -105q-5 -28 -5 -50
q0 -38 15.5 -64t53.5 -26q22 0 44.5 16t35.5 38z" />
    <glyph glyph-name="A" unicode="A" horiz-adv-x="576" 
d="M473 0l-18 182h-283l-87 -182h-78l348 700h120l83 -700h-85zM409 641h-18l-185 -399h239z" />
    <glyph glyph-name="B" unicode="B" horiz-adv-x="534" 
d="M514 186q-8 -42 -25 -76t-45.5 -58.5t-70.5 -38t-100 -13.5h-196l132 700h192q51 0 84 -10.5t52 -30.5q30 -30 30 -82q0 -11 -1.5 -22t-3.5 -23q-8 -40 -22 -67t-33.5 -45.5t-44.5 -30.5t-55 -22l-2 -11q24 -7 44.5 -15.5t36 -22t24.5 -34t9 -50.5q0 -11 -1.5 -22.5
t-3.5 -25.5zM434 195q4 19 4 38q0 30 -11 49t-29 29.5t-41.5 14t-48.5 3.5h-90l-51 -270h95q30 0 57.5 5t50 19.5t39.5 41t25 70.5zM479 524q2 10 3 18t1 16q0 20 -6 34.5t-16 23.5q-20 19 -48 22t-51 3h-85l-48 -252h83q24 0 50 4.5t49 18.5t41.5 41t26.5 71z" />
    <glyph glyph-name="C" unicode="C" horiz-adv-x="524" 
d="M474 6q-38 -10 -67.5 -13.5t-63.5 -3.5q-114 0 -174.5 63t-60.5 184q0 52 12 115q32 172 125.5 266t239.5 94q36 0 70 -3.5t50 -7.5l-11 -62q-18 4 -46 7t-53 3q-70 0 -120 -23t-84.5 -63t-55.5 -94.5t-33 -117.5q-5 -29 -8 -55t-3 -50q0 -94 44 -144t137 -50
q34 0 58.5 4.5t55.5 12.5z" />
    <glyph glyph-name="D" unicode="D" horiz-adv-x="610" 
d="M611 350q-14 -74 -36.5 -129t-51.5 -96q-48 -68 -112 -96.5t-137 -28.5h-197l132 700h199q37 0 69.5 -6.5t58.5 -21.5t45.5 -39.5t30.5 -60.5q12 -41 12 -95q0 -28 -3 -59.5t-10 -67.5zM527 350q7 38 10.5 69t3.5 57q0 35 -6 61q-8 35 -24.5 55t-39.5 30.5t-50 13.5
t-56 3h-89l-109 -578h91q28 0 56 3t54.5 13t50 30t44.5 54q20 32 36 78t28 111z" />
    <glyph glyph-name="E" unicode="E" horiz-adv-x="477" 
d="M77 0l132 700h354l-12 -62h-275l-46 -244h208l-11 -62h-209l-51 -270h279l-12 -62h-357z" />
    <glyph glyph-name="F" unicode="F" horiz-adv-x="463" 
d="M276 638l-49 -261h217l-12 -64h-217l-60 -313h-78l132 700h359l-12 -62h-280z" />
    <glyph glyph-name="G" unicode="G" horiz-adv-x="583" 
d="M516 10q-29 -8 -73.5 -14.5t-96.5 -6.5q-66 0 -112 16.5t-74.5 46.5t-41.5 72.5t-13 95.5q0 29 3.5 61t10.5 67q37 192 129.5 277.5t245.5 85.5q16 0 34.5 -1.5t36.5 -3.5t34 -4.5t28 -4.5l-11 -61q-20 4 -53.5 7.5t-63.5 3.5q-61 0 -109 -15.5t-84.5 -50.5t-62 -92
t-41.5 -141q-6 -29 -9.5 -58.5t-3.5 -56.5q0 -39 8.5 -72t29.5 -57.5t55.5 -38.5t86.5 -14q6 0 16 0.5t21.5 1t22 1.5t18.5 2l53 282h78z" />
    <glyph glyph-name="H" unicode="H" horiz-adv-x="609" 
d="M442 0l64 335h-287l-63 -335h-79l132 700h79l-57 -304h286l58 304h78l-133 -700h-78z" />
    <glyph glyph-name="I" unicode="I" horiz-adv-x="237" 
d="M77 0l132 700h79l-133 -700h-78z" />
    <glyph glyph-name="J" unicode="J" horiz-adv-x="249" 
d="M165 47q-8 -46 -28.5 -81t-62.5 -70l-120 -103l-36 46l101 91q16 15 27.5 28t19 26.5t12.5 28t8 32.5l124 655h79z" />
    <glyph glyph-name="K" unicode="K" horiz-adv-x="536" 
d="M415 0l-193 355l-67 -355h-78l132 700h78l-64 -340l317 340h92l-315 -340l201 -360h-103z" />
    <glyph glyph-name="L" unicode="L" horiz-adv-x="444" 
d="M77 0l132 700h79l-121 -637h266l-12 -63h-344z" />
    <glyph glyph-name="M" unicode="M" horiz-adv-x="748" 
d="M620 0l65 641h-13l-254 -641h-125v641h-13l-178 -641h-68l201 700h140v-619h12l241 619h134l-64 -700h-78z" />
    <glyph glyph-name="N" unicode="N" horiz-adv-x="646" 
d="M689 700l-133 -700h-126l-159 626h-11l-115 -626h-68l133 700h124l159 -619h11l114 619h71z" />
    <glyph glyph-name="O" unicode="O" horiz-adv-x="626" 
d="M626 350q-33 -176 -115.5 -270t-206.5 -94q-98 0 -148 60t-50 174q0 29 3.5 61.5t10.5 68.5q33 176 115.5 270t206.5 94q98 0 147.5 -60t49.5 -174q0 -29 -3 -61.5t-10 -68.5zM544 349q6 29 11.5 66.5t5.5 74.5v12q0 7 -1 13q-2 28 -9.5 52.5t-22.5 43.5t-39 30t-59 11
q-59 0 -98 -28.5t-65 -71.5q-29 -48 -43 -104.5t-23 -103.5q-5 -29 -10.5 -65.5t-5.5 -71.5q0 -9 0.5 -17.5t1.5 -16.5q3 -26 11 -48.5t23 -39.5t38.5 -27t56.5 -10q63 0 104 33t67 81q24 46 36.5 97t20.5 90z" />
    <glyph glyph-name="P" unicode="P" horiz-adv-x="497" 
d="M558 488q-8 -43 -25.5 -83t-47.5 -72t-74 -50.5t-107 -18.5h-99l-50 -264h-78l132 700h177q68 0 106.5 -19t55.5 -51q9 -17 13 -36.5t4 -40.5q0 -16 -2 -32t-5 -33zM476 488q6 31 6 55q0 15 -2 26.5t-6 21.5q-13 32 -42 40.5t-64 8.5h-92l-60 -317h90q35 0 67.5 11
t58.5 44q29 37 44 110z" />
    <glyph glyph-name="Q" unicode="Q" horiz-adv-x="626" 
d="M626 350q-20 -109 -60.5 -186.5t-97.5 -122.5l68 -134l-50 -41l-92 135q-42 -15 -90 -15q-98 0 -148 60t-50 174q0 29 3.5 61.5t10.5 68.5q33 176 115.5 270t206.5 94q98 0 147.5 -60t49.5 -174q0 -29 -3 -61.5t-10 -68.5zM544 349q6 29 11.5 66.5t5.5 74.5v12q0 7 -1 13
q-2 28 -9.5 52.5t-22.5 43.5t-39 30t-59 11q-59 0 -98 -28.5t-65 -71.5q-18 -30 -33.5 -75t-26 -93.5t-16.5 -95.5t-6 -81q0 -9 0.5 -17.5t1.5 -16.5q3 -26 11 -48.5t23 -39.5t38.5 -27t56.5 -10q63 0 104 33t67 81q24 46 36.5 97t20.5 90z" />
    <glyph glyph-name="R" unicode="R" horiz-adv-x="545" 
d="M410 0l-98 281h-104l-53 -281h-78l132 700h189q81 0 123 -36.5t42 -109.5q0 -28 -6 -61q-12 -62 -50 -115t-108 -78l-5 -8l110 -292h-94zM476 493q2 14 3.5 26.5t1.5 23.5q0 30 -9 49.5t-24.5 30t-36 14.5t-44.5 4h-91l-56 -299h79q30 0 58 6t51.5 23t41 46t26.5 76z" />
    <glyph glyph-name="S" unicode="S" horiz-adv-x="502" 
d="M490 204q-11 -56 -37 -97t-62.5 -67.5t-82 -39t-96.5 -12.5q-22 0 -44 2t-42 4.5t-37 5t-27 4.5l13 68q6 -1 23.5 -4t40 -6t45.5 -5.5t40 -2.5q70 0 119.5 34t60.5 94q3 15 3 27q0 28 -12 47t-29 32t-37 21t-35 15q-10 4 -24.5 9.5t-30.5 14t-32 20t-29 28.5
q-13 16 -21 37t-8 49q0 20 4 39q9 48 31 83.5t54.5 59.5t73 36t86.5 12q50 0 85.5 -4.5t55.5 -8.5l-11 -63q-11 2 -26 4t-31.5 3.5t-32.5 2.5t-28 1q-28 0 -56.5 -4t-53 -16.5t-42.5 -35t-25 -59.5q-2 -7 -2 -13v-11q0 -25 10 -42.5t27 -30.5t39 -23t46 -19l10 -4
q24 -9 52.5 -22.5t49.5 -37.5q13 -16 21 -37t8 -49q0 -20 -4 -39z" />
    <glyph glyph-name="T" unicode="T" horiz-adv-x="477" 
d="M393 635l-120 -635h-78l120 635h-181l13 65h439l-12 -65h-181z" />
    <glyph glyph-name="U" unicode="U" horiz-adv-x="604" 
d="M562 224q-10 -53 -26.5 -96.5t-45.5 -74t-75 -47.5t-114 -17q-52 0 -86.5 10t-55.5 28t-29.5 44.5t-8.5 59.5q0 21 3 44t8 49l90 476h79l-90 -477q-9 -47 -9 -77q0 -29 7 -47.5t21.5 -29.5t35.5 -15t48 -4q32 0 59.5 6.5t50 25t39.5 52.5t28 89l90 477h71z" />
    <glyph glyph-name="V" unicode="V" horiz-adv-x="521" 
d="M310 0h-110l-59 700h82l45 -620h12l279 620h76z" />
    <glyph glyph-name="W" unicode="W" horiz-adv-x="783" 
d="M609 0h-94v627h-16q0 -2 -10.5 -38.5t-35.5 -112.5t-66 -194t-103 -282h-122v700h78l2 -273q0 -72 -0.5 -127t-1.5 -96.5t-3 -71t-3 -51.5h12l224 619h116v-34q0 -114 -2 -200.5t-5 -154t-7 -119t-7 -94.5l-1 -17h12l237 619h72z" />
    <glyph glyph-name="X" unicode="X" horiz-adv-x="539" 
d="M427 0l-99 312h-15l-218 -312h-88l259 351l-116 349h89l95 -307h15l212 307h83l-249 -349l126 -351h-94z" />
    <glyph glyph-name="Y" unicode="Y" horiz-adv-x="518" 
d="M335 254l-48 -254h-78l52 275l-123 425h91l91 -361h7l226 361h82z" />
    <glyph glyph-name="Z" unicode="Z" horiz-adv-x="466" 
d="M28 0l19 97l422 540h-310l12 63h378l-20 -101l-419 -535h331l-12 -64h-401z" />
    <glyph glyph-name="bracketleft" unicode="[" horiz-adv-x="357" 
d="M60 -160l177 940h151l-10 -54h-82l-157 -832h82l-10 -54h-151z" />
    <glyph glyph-name="backslash" unicode="\" horiz-adv-x="346" 
d="M244 -92l-77 865l61 18l77 -864z" />
    <glyph glyph-name="bracketright" unicode="]" horiz-adv-x="357" 
d="M79 -160l10 54h82l158 832h-83l11 54h151l-178 -940h-151z" />
    <glyph glyph-name="asciicircum" unicode="^" horiz-adv-x="392" 
d="M369 350l-48 291h-12l-161 -291h-49l185 350h87l46 -350h-48z" />
    <glyph glyph-name="underscore" unicode="_" horiz-adv-x="358" 
d="M1 -86l8 38h315l-7 -38h-316z" />
    <glyph glyph-name="grave" unicode="`" horiz-adv-x="259" 
d="M277 604l-82 137h85l38 -137h-41z" />
    <glyph glyph-name="a" unicode="a" horiz-adv-x="489" 
d="M411 3q-17 -3 -39 -5.5t-45.5 -4.5t-47 -3t-43.5 -1q-41 0 -73 4.5t-54.5 17.5t-34.5 35t-12 58q0 23 6 55q10 52 32.5 83t52.5 48q39 22 84 26t85 4q24 0 45 -1.5t27 -2.5q4 18 9.5 49t5.5 59q0 29 -26 42.5t-86 13.5q-32 0 -65 -5.5t-66 -11.5l-11 -2l11 57
q79 18 151 18q39 0 70 -4t53 -16t33.5 -34t11.5 -58q0 -25 -6 -59zM384 263q-8 1 -27.5 2t-42.5 1q-32 0 -59.5 -4t-49 -16t-36 -34t-21.5 -57q-3 -18 -3 -33q0 -28 10.5 -44t27.5 -24.5t38.5 -11t42.5 -2.5q6 0 16 0.5t21 1.5t22.5 2.5t19.5 2.5z" />
    <glyph glyph-name="b" unicode="b" horiz-adv-x="518" 
d="M508 263q-11 -59 -34 -109.5t-59 -87t-85.5 -57t-114.5 -20.5q-45 0 -83.5 4t-59.5 7l142 750h75l-42 -219q14 2 37 4t52 2q71 0 110 -25.5t56 -67.5q8 -20 11.5 -43t3.5 -47q0 -45 -9 -91zM426 253q9 49 9 85q0 17 -2 31t-5 26q-8 30 -23 47t-32.5 25.5t-34 10
t-26.5 1.5q-20 0 -40 -2t-35 -4l-81 -425q12 -2 31.5 -3t36.5 -1q46 0 80.5 18t59 47t39.5 67t23 77z" />
    <glyph glyph-name="c" unicode="c" horiz-adv-x="449" 
d="M390 4q-13 -3 -43 -8t-67 -5q-94 0 -143 49t-49 143q0 19 2 38.5t6 41.5q24 128 99 199.5t193 71.5q27 0 57 -3t44 -5l-11 -56q-16 2 -38 4.5t-45 2.5q-53 0 -90 -16t-63 -44.5t-41.5 -67.5t-24.5 -85q-4 -20 -6 -38t-2 -35q0 -69 34 -105t105 -36q11 0 25.5 1.5t28.5 4
t25 4.5t16 3z" />
    <glyph glyph-name="d" unicode="d" horiz-adv-x="518" 
d="M435 0q-12 -2 -30 -4t-37.5 -3.5t-40 -2.5t-38.5 -1q-53 0 -90.5 14t-61.5 39t-35 60t-11 78q0 20 1.5 40.5t6.5 42.5q14 74 39.5 122.5t56.5 78.5q27 27 55.5 41.5t53 21.5t43 8t25.5 1q30 0 53.5 -2.5t34.5 -4.5l42 221h75zM450 474q-11 2 -32 3.5t-41 1.5
q-11 0 -27.5 -1.5t-36 -9t-40.5 -23.5t-40 -44q-17 -26 -31 -61.5t-24 -86.5q-3 -17 -5 -33.5t-2 -32.5q0 -29 6.5 -55t22 -45.5t40.5 -31t61 -11.5q18 0 36.5 1t32.5 3z" />
    <glyph glyph-name="e" unicode="e" horiz-adv-x="505" 
d="M175 236q-2 -11 -3 -22t-1 -22q0 -22 4.5 -44t15.5 -42q15 -27 44.5 -45t78.5 -18q37 0 72 5.5t58 10.5l-10 -54q-21 -5 -59.5 -11t-82.5 -6q-26 0 -52.5 3.5t-50.5 12.5t-44.5 26t-33.5 44q-20 40 -20 103q0 21 2.5 45.5t7.5 52.5q3 16 9 40t16.5 50.5t26.5 54t40 51.5
q29 29 71 47t100 18q48 0 78.5 -13.5t48 -35t24 -50t6.5 -58.5v-4q-1 -38 -8.5 -75.5t-12.5 -63.5h-325zM427 287q4 23 7.5 46t3.5 50q0 19 -4.5 37.5t-14 32.5t-26.5 22.5t-42 8.5q-45 0 -74.5 -22t-47.5 -53.5t-27.5 -65t-15.5 -56.5h241z" />
    <glyph glyph-name="f" unicode="f" horiz-adv-x="364" 
d="M282 470l-89 -470h-75l89 470h-90l10 54h90l19 97q5 24 14.5 48t26.5 42q16 17 40.5 28t62.5 11h87l-10 -55h-64q-24 0 -38.5 -6t-23.5 -17t-13.5 -26.5t-8.5 -34.5l-17 -87h132l-10 -54h-132z" />
    <glyph glyph-name="g" unicode="g" horiz-adv-x="524" 
d="M591 476q-2 0 -14 0.5t-29.5 1.5t-36.5 2t-35 3q33 -41 33 -94q0 -16 -3 -34q-6 -31 -21 -63.5t-42.5 -58.5t-68 -43t-97.5 -17q-21 0 -33 2.5t-20 5.5q-20 -14 -38 -29.5t-23 -35.5q-1 -5 -1 -13q0 -25 18.5 -32t44.5 -9l93 -5q32 -2 59.5 -7t47 -15.5t30.5 -28
t11 -43.5q0 -11 -3 -26q-8 -40 -28 -67.5t-47 -44.5q-23 -15 -48.5 -24t-50 -13.5t-46 -6t-35.5 -1.5q-30 0 -58 2t-51 5t-40.5 6t-27.5 5l11 59q13 -2 33.5 -5.5t45 -6.5t50 -5t47.5 -2q18 0 43.5 2t50 9.5t44 23t24.5 42.5q1 5 1 8v7q0 18 -8 29t-20.5 17t-28 9t-31.5 4
l-89 5q-23 1 -45.5 4.5t-40 11.5t-28.5 21.5t-11 34.5q0 4 0.5 8.5t1.5 9.5q7 36 30.5 63t70.5 55q-35 17 -50.5 43t-15.5 62q0 19 5 47q9 45 29.5 79.5t50 57t66.5 34t78 11.5q22 0 36.5 -3.5t27.5 -5.5l193 12zM426 358q3 18 3 34q0 46 -25 70t-68 24q-52 0 -87.5 -34
t-46.5 -94q-2 -12 -3 -22t-1 -20q0 -49 24.5 -71t64.5 -22q54 0 89.5 31.5t49.5 103.5z" />
    <glyph glyph-name="h" unicode="h" horiz-adv-x="524" 
d="M445 0h-75l68 357q3 16 5 30.5t2 27.5q0 26 -12.5 42.5t-50.5 16.5q-16 0 -37 -4.5t-42 -11.5t-41 -15.5t-35 -15.5l-80 -427h-75l142 750h75l-51 -269q35 17 61.5 28t48.5 17.5t40 9t35 2.5q19 0 37 -5.5t31.5 -18t21.5 -33t8 -51.5q0 -24 -6 -57z" />
    <glyph glyph-name="i" unicode="i" horiz-adv-x="224" 
d="M72 0l100 525h75l-99 -525h-76zM198 665l16 85h75l-16 -85h-75z" />
    <glyph glyph-name="j" unicode="j" horiz-adv-x="242" 
d="M173 41q-9 -46 -29.5 -80.5t-62.5 -70.5l-119 -103l-33 46l102 91q16 15 27 28t18.5 26.5t12.5 28t8 32.5l93 486h75zM215 665l16 85h75l-16 -85h-75z" />
    <glyph glyph-name="k" unicode="k" horiz-adv-x="464" 
d="M365 0l-162 298l-56 -298h-75l142 750h75l-85 -450l245 225h94l-250 -225l172 -300h-100z" />
    <glyph glyph-name="l" unicode="l" horiz-adv-x="230" 
d="M72 0l142 750h75l-142 -750h-75z" />
    <glyph glyph-name="m" unicode="m" horiz-adv-x="747" 
d="M663 0h-75l67 357q4 20 7 38t3 32q0 21 -12 33.5t-46 12.5q-29 0 -59 -13.5t-57 -28.5l-4 -2l-81 -429h-76l68 356q4 19 6.5 35.5t2.5 30.5q0 23 -12.5 36.5t-47.5 13.5q-14 0 -30.5 -4.5t-32.5 -11t-30.5 -14.5t-25.5 -14l-81 -428h-75l100 525h67l-9 -48q1 1 17 10.5
t38 20t46.5 19t43.5 8.5q40 0 65.5 -11.5t38.5 -47.5q48 29 91.5 44.5t71.5 15.5q48 0 73.5 -21.5t25.5 -75.5q0 -24 -6 -57z" />
    <glyph glyph-name="n" unicode="n" horiz-adv-x="525" 
d="M371 0l65 345q4 19 7 37.5t3 35.5q-1 23 -13.5 38t-47.5 15q-16 0 -36.5 -4t-42 -10t-42 -13.5t-36.5 -15.5l-81 -428h-75l100 525h68l-8 -47q7 3 27 12.5t47 19.5t57 18t56 8q28 0 47.5 -8t32 -22.5t18 -34.5t5.5 -43q0 -21 -5 -49l-72 -379h-74z" />
    <glyph glyph-name="o" unicode="o" horiz-adv-x="533" 
d="M523 263q-11 -58 -30 -108t-50.5 -87.5t-76.5 -59t-107 -21.5q-48 0 -80.5 13t-53 36t-29 55t-8.5 71q0 23 3 48.5t8 52.5q11 57 30 107.5t50.5 87.5t76.5 58.5t107 21.5q48 0 80.5 -13t53 -36t29 -55t8.5 -71q0 -45 -11 -100zM442 262q5 26 9 53t4 53q0 24 -4.5 45
t-16.5 36.5t-31.5 24.5t-49.5 9q-47 0 -77 -20.5t-49.5 -53t-30 -71.5t-17.5 -76q-5 -26 -8.5 -53t-3.5 -53q0 -24 4.5 -45t16.5 -36.5t31.5 -24.5t49.5 -9q46 0 76 20.5t49.5 53t30 71.5t17.5 76z" />
    <glyph glyph-name="p" unicode="p" horiz-adv-x="518" 
d="M508 263q-11 -59 -34 -109.5t-59 -87t-85.5 -57t-114.5 -20.5h-36q-17 0 -33 2l-40 -211h-75l141 746q17 2 61 6.5t103 4.5q75 0 115 -29t55 -75q6 -19 8.5 -39t2.5 -41q0 -45 -9 -90zM426 253q9 49 9 86q0 27 -5 50q-8 33 -23 51t-32.5 26.5t-34.5 10.5t-28 2
q-24 0 -44 -1.5t-31 -3.5l-81 -427q2 0 23 -1.5t45 -1.5q46 0 80.5 18t59 47t39.5 67t23 77z" />
    <glyph glyph-name="q" unicode="q" horiz-adv-x="520" 
d="M320 -220l41 217q-38 -6 -56 -7t-32 -1q-33 0 -61 8t-46 19q-38 22 -56.5 65.5t-18.5 100.5q0 40 9 84q6 30 16 62t26 62t38 56.5t52 45.5q38 25 79 33.5t89 8.5q28 0 64.5 -3.5t71.5 -5.5l-141 -745h-75zM452 476q-11 1 -27.5 2t-39.5 1q-75 0 -129.5 -50.5
t-75.5 -162.5q-5 -23 -6.5 -43.5t-1.5 -37.5q0 -39 9 -65.5t25 -43t37.5 -24t47.5 -7.5t48 2t33 4z" />
    <glyph glyph-name="r" unicode="r" horiz-adv-x="356" 
d="M402 457q-56 0 -97.5 -6.5t-77.5 -30.5l-79 -420h-76l100 525h68l-10 -51q28 19 51.5 30t45 16.5t43 7t46.5 1.5z" />
    <glyph glyph-name="s" unicode="s" horiz-adv-x="413" 
d="M395 187q0 -15 -3 -31q-8 -43 -28.5 -74.5t-49 -52t-64 -30.5t-74.5 -10q-49 0 -85 5t-47 7l12 60q17 -3 54.5 -8t75.5 -5q27 0 50.5 8.5t41 23t27 34.5t9.5 43t-11.5 37t-28.5 24q-18 10 -38.5 16.5t-37.5 14.5q-36 16 -58.5 42.5t-22.5 67.5q0 40 16.5 72.5t44 56
t62.5 36t72 12.5q48 0 79.5 -3.5t45.5 -5.5l-11 -56q-22 3 -53.5 5t-52.5 2q-22 0 -44 -6t-40 -18t-29.5 -30.5t-11.5 -43.5q0 -27 18 -43q14 -13 33 -20.5t37 -14.5q28 -11 52 -23t40 -31q9 -11 14.5 -26t5.5 -35z" />
    <glyph glyph-name="t" unicode="t" horiz-adv-x="348" 
d="M284 470l-67 -350q-4 -20 -4 -36q0 -17 9.5 -21t35.5 -4h69l-11 -59h-78q-28 0 -48 1.5t-32.5 7.5t-18.5 17.5t-6 32.5q0 22 6 55l68 356h-90l10 54h90l30 158l82 31l-35 -189h124l-10 -54h-124z" />
    <glyph glyph-name="u" unicode="u" horiz-adv-x="525" 
d="M374 0l8 47q-12 -7 -32.5 -17t-45.5 -19t-53 -15.5t-56 -6.5q-56 0 -79.5 30.5t-23.5 77.5q0 21 5 49l72 379h75l-65 -345q-2 -11 -6 -32.5t-4 -37.5q0 -24 12.5 -40t47.5 -16q16 0 36.5 4t42 10t42 13.5t36.5 15.5l81 428h75l-100 -525h-68z" />
    <glyph glyph-name="v" unicode="v" horiz-adv-x="441" 
d="M267 0h-101l-58 525h79l43 -455h11l213 455h70z" />
    <glyph glyph-name="w" unicode="w" horiz-adv-x="687" 
d="M543 0h-120v450h-12l-165 -450h-129v525h75l4 -455h17l164 455h117l-7 -455h18l175 455h69z" />
    <glyph glyph-name="x" unicode="x" horiz-adv-x="419" 
d="M275 310l151 215h75l-194 -262l104 -263h-90l-76 222h-4l-161 -222h-80l203 263l-95 262h91l72 -215h4z" />
    <glyph glyph-name="y" unicode="y" horiz-adv-x="470" 
d="M182 -220h-76l114 220h-47l-60 525h83l44 -461h12l215 461h80z" />
    <glyph glyph-name="z" unicode="z" horiz-adv-x="432" 
d="M41 0l14 73l363 391h-274l11 61h337l-19 -97l-340 -367h271l-12 -61h-351z" />
    <glyph glyph-name="braceleft" unicode="{" horiz-adv-x="357" 
d="M150 -161q-25 0 -41.5 14.5t-16.5 49.5q0 12 3 29l51 265q5 28 5 48q0 17 -5.5 28t-20.5 11h-26l11 56h25q38 0 54 86l49 259q8 44 33 69.5t57 25.5h76l-10 -57h-40q-17 0 -30.5 -9t-17.5 -29l-49 -259q-3 -16 -7 -32t-11 -31q-8 -16 -19.5 -26.5t-32.5 -13.5l-4 -21
q22 -2 30.5 -12.5t8.5 -25.5v-8q0 -14 -3 -27.5t-5 -27.5l-51 -269q-1 -5 -1 -6v-4q0 -14 9.5 -20.5t26.5 -6.5h39l-10 -56h-77z" />
    <glyph glyph-name="bar" unicode="|" horiz-adv-x="246" 
d="M55 -180l176 930h63l-175 -930h-64z" />
    <glyph glyph-name="braceright" unicode="}" horiz-adv-x="357" 
d="M333 284q-12 0 -21 -7t-15 -19t-10.5 -28t-7.5 -33l-50 -265q-10 -51 -35.5 -72t-54.5 -21h-76l10 56h40q19 0 31.5 8.5t16.5 28.5l51 269l6 32q3 16 10 31t18.5 25.5t34.5 12.5l4 21q-23 2 -29.5 15t-7.5 32q0 9 1.5 24t4.5 32l49 259q1 4 1 9q0 15 -10 22t-25 7h-39
l10 57h77q27 0 42 -17.5t15 -49.5q0 -13 -3 -28l-49 -259q-5 -28 -5 -44q0 -42 26 -42h26l-11 -56h-25z" />
    <glyph glyph-name="asciitilde" unicode="~" horiz-adv-x="536" 
d="M555 330q-29 -31 -62 -52.5t-65 -21.5q-36 0 -63.5 12t-51.5 27t-47.5 27t-52.5 12q-11 0 -24.5 -8t-26.5 -19t-25.5 -23t-21.5 -20l-17 75q26 32 59 53.5t71 21.5t66.5 -12t53 -27t47 -27t48.5 -12q13 0 32.5 15t60.5 56z" />
    <glyph glyph-name="uni00A0" unicode="&#xa0;" horiz-adv-x="292" 
 />
    <glyph glyph-name="exclamdown" unicode="&#xa1;" horiz-adv-x="285" 
d="M63 -176l105 478h53l-75 -478h-83zM168 386l18 96h85l-18 -96h-85z" />
    <glyph glyph-name="cent" unicode="&#xa2;" horiz-adv-x="430" 
d="M393 4q-17 -4 -43.5 -8t-58.5 -5l-17 -93h-57l19 97q-71 11 -108 58.5t-37 128.5q0 35 8 81q21 113 82 182t156 85l18 98h56l-17 -94q13 0 28.5 -1t29 -2t24.5 -2.5t16 -2.5l-11 -56q-12 2 -35 4.5t-48 2.5q-53 0 -90 -16t-63 -44.5t-41.5 -67.5t-24.5 -85q-4 -20 -6 -38
t-2 -35q0 -69 34 -105t105 -36q26 0 52 5t43 8z" />
    <glyph glyph-name="sterling" unicode="&#xa3;" horiz-adv-x="524" 
d="M585 641q-23 7 -45.5 11t-51.5 4q-42 0 -69 -8.5t-44 -26.5t-26.5 -45.5t-16.5 -64.5l-21 -109h125l-11 -57h-125l-54 -287h227l-11 -58h-388l11 58h84l53 287h-83l11 57h83l20 103q6 34 17 71t35 68t66 51t111 20q38 0 66.5 -5t48.5 -11z" />
    <glyph glyph-name="currency" unicode="&#xa4;" horiz-adv-x="555" 
d="M492 397q14 -42 14 -80q0 -12 -1.5 -24t-3.5 -24q-12 -65 -57 -129l35 -57l-52 -53l-36 58q-30 -21 -57 -30.5t-53 -9.5t-49 9.5t-46 30.5l-57 -58l-33 53l58 57q-8 21 -11 42t-3 41q0 11 1 22.5t3 23.5q12 63 57 128l-35 57l53 52l35 -58q31 22 57.5 31.5t52.5 9.5
q27 0 50 -9.5t46 -31.5l57 58l32 -52zM438 268q4 19 4 40q0 51 -25 83.5t-64 32.5q-24 0 -47 -12t-42.5 -33t-34.5 -49.5t-21 -61.5q-2 -10 -3 -19.5t-1 -18.5q0 -52 25 -85t65 -33q23 0 46.5 12t43 33t34 49.5t20.5 61.5z" />
    <glyph glyph-name="yen" unicode="&#xa5;" horiz-adv-x="522" 
d="M382 361h116l-10 -53h-135l-14 -74h135l-10 -53h-135l-34 -181h-79l34 181h-137l10 53h137l14 74h-137l11 53h116l-93 339h91l69 -318h8l187 318h79z" />
    <glyph glyph-name="brokenbar" unicode="&#xa6;" horiz-adv-x="246" 
d="M158 369l72 381h65l-72 -381h-65zM54 -181l72 381h65l-72 -381h-65z" />
    <glyph glyph-name="section" unicode="&#xa7;" horiz-adv-x="509" 
d="M495 319q-22 -119 -155 -158l-2 -10q38 -19 60 -43t22 -64q0 -8 -1 -16.5t-3 -17.5q-5 -25 -18 -53t-39 -52t-66 -40t-98 -16q-37 0 -67 6q-15 3 -29.5 6.5t-31.5 8.5l12 62q28 -11 58.5 -18.5t60.5 -7.5q24 0 47 5.5t42.5 17t33 29.5t18.5 44q1 5 1 15q0 20 -10 34.5
t-25 26t-33 19.5t-34 15l-11 5q-21 9 -40.5 20t-35.5 26t-25.5 36t-9.5 51q0 20 4 39q11 60 47.5 98.5t102.5 58.5l2 10q-37 22 -55 44.5t-18 57.5q0 8 1 16.5t3 18.5q7 39 26.5 68.5t48 49.5t64.5 30t77 10q35 0 64 -5t50 -12l-12 -61q-11 5 -26 8.5t-30 6t-28 4t-20 1.5
q-25 0 -48.5 -4.5t-42.5 -15t-32.5 -28t-18.5 -42.5q-1 -5 -1.5 -9.5t-0.5 -8.5q0 -21 9.5 -35t24 -24.5t32.5 -18t35 -13.5l13 -5q21 -8 41 -18t36 -24.5t25.5 -35.5t9.5 -51q0 -9 -1 -19.5t-3 -21.5zM423 312q3 13 3 25q0 37 -23.5 55.5t-60.5 34.5q-23 -3 -46.5 -11.5
t-44.5 -24.5t-37.5 -40.5t-23.5 -60.5q-1 -5 -1.5 -9t-0.5 -9q0 -19 7.5 -33t20 -24.5t28 -18.5t30.5 -14q23 5 47 14t44.5 24.5t36 37.5t21.5 54z" />
    <glyph glyph-name="dieresis" unicode="&#xa8;" horiz-adv-x="270" 
d="M297 660l16 85h75l-16 -85h-75zM131 660l16 85h75l-16 -85h-75z" />
    <glyph glyph-name="copyright" unicode="&#xa9;" horiz-adv-x="748" 
d="M739 350q0 -22 -4 -57.5t-15 -75.5t-31.5 -80.5t-53.5 -73.5t-80.5 -53.5t-113.5 -20.5t-113.5 20.5t-80.5 53.5t-53 73.5t-31.5 80.5t-15 75.5t-3.5 57.5t3.5 57.5t15 75.5t31.5 80.5t53 73.5t80.5 53.5t113.5 20.5t113.5 -20.5t80.5 -53.5t53.5 -73.5t31.5 -80.5
t15 -75.5t4 -57.5zM684 350q0 55 -14.5 110.5t-44.5 100.5t-76 73.5t-108 28.5t-107.5 -28.5t-75.5 -73.5t-44.5 -100.5t-14.5 -110.5t14.5 -110.5t44.5 -100.5t75.5 -73t107.5 -28t108 28t76 73t44.5 100.5t14.5 110.5zM542 492q-19 4 -37.5 6.5t-38.5 2.5q-29 0 -49.5 -14
t-33 -35.5t-18.5 -47.5t-6 -50t6.5 -50t19.5 -47t33.5 -35t48.5 -14q20 0 38 4t37 11v-53q-43 -16 -83 -16q-42 0 -73.5 16.5t-52 44t-30.5 63t-10 74.5t10 74.5t30.5 63.5t51.5 44.5t74 16.5q42 0 83 -12v-47z" />
    <glyph glyph-name="ordfeminine" unicode="&#xaa;" horiz-adv-x="416" 
d="M394 405q-38 -4 -64 -5.5t-52 -1.5q-44 0 -71.5 14t-27.5 56q0 13 3 30q7 35 23 54t37 28q23 10 47.5 12t46.5 2q7 0 15 -0.5t21 -0.5q2 11 3 19t1 15q0 11 -4 18q-10 15 -54 15q-23 0 -45 -3.5t-45 -8.5l10 52q28 6 50.5 9t43.5 3q46 0 75 -12.5t29 -56.5q0 -14 -3 -32z
M131 304l10 51h261l-10 -51h-261zM363 546q-14 1 -23 1.5t-13 0.5q-38 0 -59 -10t-27 -42q-1 -4 -1 -8v-6q0 -26 18.5 -32.5t44.5 -6.5q8 0 16 0.5t25 2.5z" />
    <glyph glyph-name="guillemotleft" unicode="&#xab;" horiz-adv-x="507" 
d="M372 293l44 -233h-74l-52 233l140 232h74zM214 293l44 -233h-74l-52 233l140 232h74z" />
    <glyph glyph-name="logicalnot" unicode="&#xac;" 
d="M409 164l39 206h-354l10 57h418l-50 -263h-63z" />
    <glyph glyph-name="uni00AD" unicode="&#xad;" horiz-adv-x="372" 
d="M118 276l10 56h215l-10 -56h-215z" />
    <glyph glyph-name="registered" unicode="&#xae;" horiz-adv-x="748" 
d="M737 350q0 -22 -4 -57.5t-15 -75.5t-31.5 -80.5t-53.5 -73.5t-80.5 -53.5t-113.5 -20.5t-113.5 20.5t-80.5 53.5t-53 73.5t-31.5 80.5t-15 75.5t-3.5 57.5t3.5 57.5t15 75.5t31.5 80.5t53 73.5t80.5 53.5t113.5 20.5t113.5 -20.5t80.5 -53.5t53.5 -73.5t31.5 -80.5
t15 -75.5t4 -57.5zM682 350q0 55 -14.5 110.5t-44.5 100.5t-76 73.5t-108 28.5t-107.5 -28.5t-75.5 -73.5t-44.5 -100.5t-14.5 -110.5t14.5 -110.5t44.5 -100.5t75.5 -73t107.5 -28t108 28t76 73t44.5 100.5t14.5 110.5zM510 163l-80 145h-41v-145h-60v382h112
q54 0 86.5 -27t32.5 -90q0 -34 -15 -61.5t-54 -46.5l-2 -4l95 -153h-74zM497 427q0 42 -17 56.5t-47 14.5h-44v-143h44q30 0 47 15.5t17 56.5z" />
    <glyph glyph-name="macron" unicode="&#xaf;" horiz-adv-x="356" 
d="M183 675l9 52h240l-10 -52h-239z" />
    <glyph glyph-name="degree" unicode="&#xb0;" horiz-adv-x="415" 
d="M447 580q-7 -35 -24 -66t-41.5 -54t-53.5 -36.5t-60 -13.5q-27 0 -48.5 10t-37 28t-24 42.5t-8.5 52.5q0 39 15 76.5t40.5 66.5t58.5 46.5t69 17.5q27 0 48.5 -10.5t36.5 -28.5t23.5 -42.5t8.5 -52.5q0 -18 -3 -36zM393 580q2 7 2 13v14q0 40 -20 65.5t-52 25.5
q-19 0 -37.5 -9t-34.5 -25t-27.5 -37.5t-15.5 -46.5q-3 -15 -3 -28q0 -39 20.5 -64.5t52.5 -25.5q19 0 37.5 9t34 25t27 37.5t16.5 46.5z" />
    <glyph glyph-name="plusminus" unicode="&#xb1;" 
d="M353 350l-46 -239h-68l45 239h-201l13 71h201l47 246h68l-46 -246h201l-13 -71h-201zM16 0l12 63h471l-12 -63h-471z" />
    <glyph glyph-name="uni00B2" unicode="&#xb2;" horiz-adv-x="385" 
d="M128 332l16 84q36 25 69.5 46t60.5 41q27 21 45.5 46.5t23.5 48.5q1 4 1 12q0 23 -17 31t-37 8t-40.5 -4t-48.5 -11l11 59q51 12 89 12q20 0 40.5 -3.5t37 -13.5t27 -26.5t10.5 -41.5q0 -13 -3 -26q-5 -26 -20 -49t-35.5 -42.5t-44.5 -35.5t-46 -28l-72 -41l-2 -12h184
l-10 -54h-239z" />
    <glyph glyph-name="uni00B3" unicode="&#xb3;" horiz-adv-x="385" 
d="M380 442q-6 -33 -24 -54.5t-41 -35t-49 -19t-48 -5.5q-14 0 -39 2.5t-55 10.5l11 57q29 -9 47 -12.5t35 -3.5q15 0 29.5 3t27.5 10t22.5 19t12.5 30q1 4 1 12q0 46 -90 46l9 45q52 1 75 17t28 42q1 4 1 12q0 37 -55 37q-23 0 -45.5 -5t-45.5 -11l11 54q30 8 53 11t49 3
q19 0 37.5 -4t33.5 -13t24.5 -23.5t9.5 -35.5q0 -5 -0.5 -10t-1.5 -10q-6 -32 -29.5 -49t-58.5 -29l-2 -12q29 -8 48.5 -21.5t19.5 -42.5q0 -10 -1 -15z" />
    <glyph glyph-name="acute" unicode="&#xb4;" horiz-adv-x="254" 
d="M197 604h-41l90 137h85z" />
    <glyph glyph-name="uni00B5" unicode="&#xb5;" horiz-adv-x="527" 
d="M377 -4l15 77q-37 -38 -70.5 -56.5t-76.5 -18.5q-16 0 -28 0.5t-23 1.5l-22 2q-11 1 -25 2l-42 -224h-75l141 745h74l-86 -456q23 -5 38 -6t26 -1q33 0 64 10.5t57.5 36t46.5 68t32 105.5l46 243h75l-100 -529h-67z" />
    <glyph glyph-name="paragraph" unicode="&#xb6;" horiz-adv-x="479" 
d="M297 -125l147 776h-112l-146 -776h-59l108 573q-14 1 -30 5t-29.5 13.5t-22.5 27t-9 45.5q0 16 3 36q7 38 23 62.5t35 38.5t39 19t36 5h230l-156 -825h-57z" />
    <glyph glyph-name="periodcentered" unicode="&#xb7;" horiz-adv-x="536" 
d="M264 294l19 104h91l-19 -104h-91z" />
    <glyph glyph-name="cedilla" unicode="&#xb8;" horiz-adv-x="280" 
d="M227 -131q-6 -30 -19 -48.5t-30 -29t-37 -14.5t-40 -4q-31 0 -52 4.5t-41 15.5l23 46q19 -9 31.5 -12.5t24.5 -3.5q13 0 26.5 3t24 9.5t17 16.5t6.5 25q0 10 -4.5 15.5t-10.5 8t-11.5 3t-7.5 0.5q-7 0 -20 -2.5t-29 -9.5l-9 30l51 83h68l-57 -61q14 2 23 3t18 1
q28 0 42.5 -17t14.5 -43q0 -5 -0.5 -9.5t-1.5 -9.5z" />
    <glyph glyph-name="uni00B9" unicode="&#xb9;" horiz-adv-x="385" 
d="M139 332l11 56h76l47 251h-76l10 50l143 15l-60 -316h79l-11 -56h-219z" />
    <glyph glyph-name="ordmasculine" unicode="&#xba;" horiz-adv-x="417" 
d="M440 556q-6 -34 -21 -63t-36.5 -50.5t-47.5 -33.5t-55 -12q-53 0 -79.5 31.5t-26.5 82.5q0 11 1.5 22t3.5 23q13 71 55 113t105 42q51 0 78 -29.5t27 -81.5q0 -11 -1 -21.5t-3 -22.5zM379 556q2 13 3.5 23.5t1.5 20.5q0 69 -53 69q-34 0 -57.5 -28.5t-34.5 -84.5
q-5 -28 -5 -45q0 -73 53 -73q34 0 57.5 31t34.5 87zM131 304l10 51h261l-10 -51h-261z" />
    <glyph glyph-name="guillemotright" unicode="&#xbb;" horiz-adv-x="507" 
d="M318 60h-74l132 233l-44 232h74l53 -232zM160 60h-74l132 233l-44 232h74l53 -232z" />
    <glyph glyph-name="onequarter" unicode="&#xbc;" horiz-adv-x="822" 
d="M159 342l11 56h76l47 251h-76l10 50l143 15l-60 -316h79l-11 -56h-219zM275 -42l-42 34l560 755l44 -32zM682 0l13 67h-194l15 75l217 231h76l-241 -255h137l16 88l49 53h24l-49 -259h-63z" />
    <glyph glyph-name="onehalf" unicode="&#xbd;" horiz-adv-x="822" 
d="M159 342l11 56h76l47 251h-76l10 50l143 15l-60 -316h79l-11 -56h-219zM229 -42l-42 34l560 755l44 -32zM502 0l16 84q36 25 69.5 46t60.5 41q27 21 45.5 46.5t23.5 48.5q1 4 1 12q0 23 -17 31t-37 8t-40.5 -4t-48.5 -11l11 59q51 12 89 12q20 0 40.5 -3.5t37 -13.5
t27 -26.5t10.5 -41.5q0 -13 -3 -26q-5 -26 -20 -49t-35.5 -42.5t-44.5 -35.5t-46 -28l-72 -41l-2 -12h184l-10 -54h-239z" />
    <glyph glyph-name="threequarters" unicode="&#xbe;" horiz-adv-x="822" 
d="M392 451q-6 -33 -24 -54.5t-41 -35t-49 -19t-48 -5.5q-14 0 -39 2.5t-55 10.5l11 57q29 -9 47 -12.5t35 -3.5q15 0 29.5 3t27.5 10t22.5 19t12.5 30q1 4 1 12q0 46 -90 46l9 45q52 1 75 17t28 42q1 4 1 12q0 37 -55 37q-23 0 -45.5 -5t-45.5 -11l11 54q30 8 53 11t49 3
q19 0 37.5 -4t33.5 -13t24.5 -23.5t9.5 -35.5q0 -5 -0.5 -10t-1.5 -10q-6 -32 -29.5 -49t-58.5 -29l-2 -12q29 -8 48.5 -21.5t19.5 -42.5q0 -10 -1 -15zM235 -42l-42 34l560 755l44 -32zM682 0l13 67h-194l15 75l217 231h76l-241 -255h137l16 88l49 53h24l-49 -259h-63z" />
    <glyph glyph-name="questiondown" unicode="&#xbf;" horiz-adv-x="490" 
d="M127 -66q0 60 33 107.5t83 89.5q27 22 44 40t27 34.5t15 33t9 35.5l12 64h59l-16 -87q-6 -32 -16.5 -55t-25 -41.5t-32 -36t-37.5 -38.5q-12 -12 -24 -25.5t-21.5 -28.5t-16 -32t-6.5 -37t7.5 -34t20 -22.5t28.5 -12.5t32 -4q20 0 54.5 6t69.5 14l-13 -71
q-32 -9 -67.5 -14t-59.5 -5q-26 0 -54 5t-51.5 18.5t-38.5 37t-15 59.5zM454 526l-18 -96h-85l18 96h85z" />
    <glyph glyph-name="Agrave" unicode="&#xc0;" horiz-adv-x="576" 
d="M473 0l-18 182h-283l-87 -182h-78l348 700h120l83 -700h-85zM409 641h-18l-185 -399h239zM421 740l-82 138h86l38 -138h-42z" />
    <glyph glyph-name="Aacute" unicode="&#xc1;" horiz-adv-x="576" 
d="M473 0l-18 182h-283l-87 -182h-78l348 700h120l83 -700h-85zM409 641h-18l-185 -399h239zM414 740h-41l89 138h86z" />
    <glyph glyph-name="Acircumflex" unicode="&#xc2;" horiz-adv-x="576" 
d="M473 0l-18 182h-283l-87 -182h-78l348 700h120l83 -700h-85zM409 641h-18l-185 -399h239zM497 740l-59 117l-104 -117h-49l116 148h89l56 -148h-49z" />
    <glyph glyph-name="Atilde" unicode="&#xc3;" horiz-adv-x="576" 
d="M473 0l-18 182h-283l-87 -182h-78l348 700h120l83 -700h-85zM409 641h-18l-185 -399h239zM573 867q-12 -51 -36 -80t-55 -29q-21 0 -38.5 7t-31.5 16t-26.5 16t-23.5 7q-19 0 -30 -15t-19 -36h-30q12 51 35.5 79.5t57.5 28.5q19 0 35.5 -7t30.5 -15.5t27 -15.5t25 -7
q18 0 29 14t18 37h32z" />
    <glyph glyph-name="Adieresis" unicode="&#xc4;" horiz-adv-x="576" 
d="M473 0l-18 182h-283l-87 -182h-78l348 700h120l83 -700h-85zM409 641h-18l-185 -399h239zM301 770l16 84h74l-16 -84h-74zM466 770l16 84h74l-16 -84h-74z" />
    <glyph glyph-name="Aring" unicode="&#xc5;" horiz-adv-x="576" 
d="M473 0l-18 182h-283l-87 -182h-78l349 700q-14 11 -22 24t-8 33q0 5 0.5 10.5t1.5 10.5q10 49 42.5 73.5t76.5 24.5q42 0 63.5 -19.5t21.5 -55.5q0 -5 -0.5 -11t-1.5 -12q-10 -52 -56 -78l84 -700h-85zM409 641h-18l-185 -400h239zM474 777q1 4 1 8v7q0 21 -11 29.5
t-26 8.5q-17 0 -33 -13t-21 -39q-1 -5 -1 -13q0 -19 10 -28.5t26 -9.5q15 0 32.5 11.5t22.5 38.5z" />
    <glyph glyph-name="AE" unicode="&#xc6;" horiz-adv-x="660" 
d="M315 0l35 185h-175l-88 -185h-80l358 700h381l-12 -62h-219l-46 -244h174l-12 -62h-174l-51 -270h225l-12 -62h-304zM435 637h-35l-192 -391h153z" />
    <glyph glyph-name="Ccedilla" unicode="&#xc7;" horiz-adv-x="524" 
d="M474 6q-38 -10 -67.5 -13.5t-63.5 -3.5h-8l-34 -38q14 3 22 3.5t17 0.5q27 0 41 -17t14 -43q0 -5 -0.5 -10.5t-1.5 -10.5q-6 -30 -18.5 -49.5t-30 -30.5t-37.5 -15t-39 -4q-29 0 -49.5 5t-40.5 16l23 48q19 -10 30.5 -13.5t28.5 -3.5q25 0 46.5 13.5t21.5 42.5
q0 10 -4.5 15.5t-10 8t-11 3t-7.5 0.5q-6 0 -18.5 -3t-29.5 -10l-9 31l41 67q-84 17 -127.5 77.5t-43.5 163.5q0 52 12 115q32 172 125.5 266t239.5 94q36 0 68.5 -3t51.5 -8l-11 -62q-27 5 -55 7.5t-47 2.5q-70 0 -120 -23t-84.5 -63t-55.5 -94.5t-33 -117.5q-5 -29 -8 -55
t-3 -50q0 -94 44 -144t137 -50q34 0 60 4.5t57 12.5z" />
    <glyph glyph-name="Egrave" unicode="&#xc8;" horiz-adv-x="477" 
d="M77 0l132 700h354l-12 -62h-275l-46 -244h208l-11 -62h-209l-51 -270h279l-12 -62h-357zM403 740l-82 138h86l38 -138h-42z" />
    <glyph glyph-name="Eacute" unicode="&#xc9;" horiz-adv-x="477" 
d="M77 0l132 700h354l-12 -62h-275l-46 -244h208l-11 -62h-209l-51 -270h279l-12 -62h-357zM384 740h-41l89 138h86z" />
    <glyph glyph-name="Ecircumflex" unicode="&#xca;" horiz-adv-x="477" 
d="M77 0l132 700h354l-12 -62h-275l-46 -244h208l-11 -62h-209l-51 -270h279l-12 -62h-357zM475 740l-59 117l-104 -117h-49l116 148h89l56 -148h-49z" />
    <glyph glyph-name="Edieresis" unicode="&#xcb;" horiz-adv-x="477" 
d="M77 0l132 700h354l-12 -62h-275l-46 -244h208l-11 -62h-209l-51 -270h279l-12 -62h-357zM282 770l16 84h74l-16 -84h-74zM447 770l16 84h74l-16 -84h-74z" />
    <glyph glyph-name="Igrave" unicode="&#xcc;" horiz-adv-x="237" 
d="M77 0l132 700h79l-133 -700h-78zM254 740l-82 138h86l38 -138h-42z" />
    <glyph glyph-name="Iacute" unicode="&#xcd;" horiz-adv-x="237" 
d="M77 0l132 700h79l-133 -700h-78zM256 740h-41l89 138h86z" />
    <glyph glyph-name="Icircumflex" unicode="&#xce;" horiz-adv-x="237" 
d="M77 0l132 700h79l-133 -700h-78zM342 740l-59 117l-104 -117h-49l116 148h89l56 -148h-49z" />
    <glyph glyph-name="Idieresis" unicode="&#xcf;" horiz-adv-x="237" 
d="M77 0l132 700h79l-133 -700h-78zM142 770l16 84h74l-16 -84h-74zM307 770l16 84h74l-16 -84h-74z" />
    <glyph glyph-name="Eth" unicode="&#xd0;" horiz-adv-x="618" 
d="M619 350q-14 -74 -36.5 -129t-51.5 -96q-48 -68 -112 -96.5t-137 -28.5h-197l61 322h-49l12 62h48l60 316h199q37 0 69.5 -6.5t58.5 -21.5t45.5 -39.5t30.5 -60.5q12 -41 12 -95q0 -28 -3 -59.5t-10 -67.5zM535 350q7 38 10.5 69t3.5 57q0 35 -6 61q-8 35 -24.5 55
t-39.5 30.5t-50 13.5t-56 3h-89l-48 -255h182l-11 -62h-183l-49 -261h91q28 0 56 3t54.5 13t50 30t44.5 54q20 32 36 78t28 111z" />
    <glyph glyph-name="Ntilde" unicode="&#xd1;" horiz-adv-x="646" 
d="M689 700l-133 -700h-126l-159 626h-11l-115 -626h-68l133 700h124l159 -619h11l114 619h71zM606 867q-12 -51 -36 -80t-55 -29q-21 0 -38.5 7t-31.5 16t-26.5 16t-23.5 7q-19 0 -30 -15t-19 -36h-30q12 51 35.5 79.5t57.5 28.5q19 0 35.5 -7t30.5 -15.5t27 -15.5t25 -7
q18 0 29 14t18 37h32z" />
    <glyph glyph-name="Ograve" unicode="&#xd2;" horiz-adv-x="626" 
d="M626 350q-33 -176 -115.5 -270t-206.5 -94q-98 0 -148 60t-50 174q0 29 3.5 61.5t10.5 68.5q33 176 115.5 270t206.5 94q98 0 147.5 -60t49.5 -174q0 -29 -3 -61.5t-10 -68.5zM544 349q6 29 11.5 66.5t5.5 74.5v12q0 7 -1 13q-2 28 -9.5 52.5t-22.5 43.5t-39 30t-59 11
q-59 0 -98 -28.5t-65 -71.5q-29 -48 -43 -104.5t-23 -103.5q-5 -29 -10.5 -65.5t-5.5 -71.5q0 -9 0.5 -17.5t1.5 -16.5q3 -26 11 -48.5t23 -39.5t38.5 -27t56.5 -10q63 0 104 33t67 81q24 46 36.5 97t20.5 90zM462 740l-82 138h86l38 -138h-42z" />
    <glyph glyph-name="Oacute" unicode="&#xd3;" horiz-adv-x="626" 
d="M626 350q-33 -176 -115.5 -270t-206.5 -94q-98 0 -148 60t-50 174q0 29 3.5 61.5t10.5 68.5q33 176 115.5 270t206.5 94q98 0 147.5 -60t49.5 -174q0 -29 -3 -61.5t-10 -68.5zM544 349q6 29 11.5 66.5t5.5 74.5v12q0 7 -1 13q-2 28 -9.5 52.5t-22.5 43.5t-39 30t-59 11
q-59 0 -98 -28.5t-65 -71.5q-29 -48 -43 -104.5t-23 -103.5q-5 -29 -10.5 -65.5t-5.5 -71.5q0 -9 0.5 -17.5t1.5 -16.5q3 -26 11 -48.5t23 -39.5t38.5 -27t56.5 -10q63 0 104 33t67 81q24 46 36.5 97t20.5 90zM451 740h-41l89 138h86z" />
    <glyph glyph-name="Ocircumflex" unicode="&#xd4;" horiz-adv-x="626" 
d="M626 350q-33 -176 -115.5 -270t-206.5 -94q-98 0 -148 60t-50 174q0 29 3.5 61.5t10.5 68.5q33 176 115.5 270t206.5 94q98 0 147.5 -60t49.5 -174q0 -29 -3 -61.5t-10 -68.5zM544 349q6 29 11.5 66.5t5.5 74.5v12q0 7 -1 13q-2 28 -9.5 52.5t-22.5 43.5t-39 30t-59 11
q-59 0 -98 -28.5t-65 -71.5q-29 -48 -43 -104.5t-23 -103.5q-5 -29 -10.5 -65.5t-5.5 -71.5q0 -9 0.5 -17.5t1.5 -16.5q3 -26 11 -48.5t23 -39.5t38.5 -27t56.5 -10q63 0 104 33t67 81q24 46 36.5 97t20.5 90zM534 740l-59 117l-104 -117h-49l116 148h89l56 -148h-49z" />
    <glyph glyph-name="Otilde" unicode="&#xd5;" horiz-adv-x="626" 
d="M626 350q-33 -176 -115.5 -270t-206.5 -94q-98 0 -148 60t-50 174q0 29 3.5 61.5t10.5 68.5q33 176 115.5 270t206.5 94q98 0 147.5 -60t49.5 -174q0 -29 -3 -61.5t-10 -68.5zM544 349q6 29 11.5 66.5t5.5 74.5v12q0 7 -1 13q-2 28 -9.5 52.5t-22.5 43.5t-39 30t-59 11
q-59 0 -98 -28.5t-65 -71.5q-29 -48 -43 -104.5t-23 -103.5q-5 -29 -10.5 -65.5t-5.5 -71.5q0 -9 0.5 -17.5t1.5 -16.5q3 -26 11 -48.5t23 -39.5t38.5 -27t56.5 -10q63 0 104 33t67 81q24 46 36.5 97t20.5 90zM608 867q-12 -51 -36 -80t-55 -29q-21 0 -38.5 7t-31.5 16
t-26.5 16t-23.5 7q-19 0 -30 -15t-19 -36h-30q12 51 35.5 79.5t57.5 28.5q19 0 35.5 -7t30.5 -15.5t27 -15.5t25 -7q18 0 29 14t18 37h32z" />
    <glyph glyph-name="Odieresis" unicode="&#xd6;" horiz-adv-x="626" 
d="M626 350q-33 -176 -115.5 -270t-206.5 -94q-98 0 -148 60t-50 174q0 29 3.5 61.5t10.5 68.5q33 176 115.5 270t206.5 94q98 0 147.5 -60t49.5 -174q0 -29 -3 -61.5t-10 -68.5zM544 349q6 29 11.5 66.5t5.5 74.5v12q0 7 -1 13q-2 28 -9.5 52.5t-22.5 43.5t-39 30t-59 11
q-59 0 -98 -28.5t-65 -71.5q-29 -48 -43 -104.5t-23 -103.5q-5 -29 -10.5 -65.5t-5.5 -71.5q0 -9 0.5 -17.5t1.5 -16.5q3 -26 11 -48.5t23 -39.5t38.5 -27t56.5 -10q63 0 104 33t67 81q24 46 36.5 97t20.5 90zM336 770l16 84h74l-16 -84h-74zM502 770l16 84h74l-16 -84h-74z
" />
    <glyph glyph-name="multiply" unicode="&#xd7;" 
d="M444 89l-126 207l-203 -204l-44 50l209 201l-133 201l66 56l126 -206l203 203l40 -53l-206 -198l133 -202z" />
    <glyph glyph-name="Oslash" unicode="&#xd8;" horiz-adv-x="626" 
d="M626 350q-33 -176 -115.5 -270t-206.5 -94q-98 0 -148 60t-50 174q0 29 3.5 61.5t10.5 68.5q33 176 115.5 270t206.5 94q98 0 147.5 -60t49.5 -174q0 -29 -3 -61.5t-10 -68.5zM546 358q5 29 10 62.5t5 67.5q0 8 -0.5 16.5t-1.5 16.5l-355 -410q14 -28 40.5 -45.5
t71.5 -17.5q35 0 63.5 11t50.5 29.5t39 43.5t29 53q19 42 29.5 86.5t18.5 86.5zM541 592q-14 27 -40 43.5t-71 16.5q-62 0 -102 -31.5t-65 -76.5q-26 -48 -39.5 -100t-21.5 -93q-5 -30 -10.5 -66t-5.5 -73v-16q0 -7 1 -15z" />
    <glyph glyph-name="Ugrave" unicode="&#xd9;" horiz-adv-x="604" 
d="M562 224q-10 -53 -26.5 -96.5t-45.5 -74t-75 -47.5t-114 -17q-52 0 -86.5 10t-55.5 28t-29.5 44.5t-8.5 59.5q0 21 3 44t8 49l90 476h79l-90 -477q-9 -47 -9 -77q0 -29 7 -47.5t21.5 -29.5t35.5 -15t48 -4q32 0 59.5 6.5t50 25t39.5 52.5t28 89l90 477h71zM455 740
l-82 138h86l38 -138h-42z" />
    <glyph glyph-name="Uacute" unicode="&#xda;" horiz-adv-x="604" 
d="M562 224q-10 -53 -26.5 -96.5t-45.5 -74t-75 -47.5t-114 -17q-52 0 -86.5 10t-55.5 28t-29.5 44.5t-8.5 59.5q0 21 3 44t8 49l90 476h79l-90 -477q-9 -47 -9 -77q0 -29 7 -47.5t21.5 -29.5t35.5 -15t48 -4q32 0 59.5 6.5t50 25t39.5 52.5t28 89l90 477h71zM437 740h-41
l89 138h86z" />
    <glyph glyph-name="Ucircumflex" unicode="&#xdb;" horiz-adv-x="604" 
d="M562 224q-10 -53 -26.5 -96.5t-45.5 -74t-75 -47.5t-114 -17q-52 0 -86.5 10t-55.5 28t-29.5 44.5t-8.5 59.5q0 21 3 44t8 49l90 476h79l-90 -477q-9 -47 -9 -77q0 -29 7 -47.5t21.5 -29.5t35.5 -15t48 -4q32 0 59.5 6.5t50 25t39.5 52.5t28 89l90 477h71zM531 740
l-59 117l-104 -117h-49l116 148h89l56 -148h-49z" />
    <glyph glyph-name="Udieresis" unicode="&#xdc;" horiz-adv-x="604" 
d="M562 224q-10 -53 -26.5 -96.5t-45.5 -74t-75 -47.5t-114 -17q-52 0 -86.5 10t-55.5 28t-29.5 44.5t-8.5 59.5q0 21 3 44t8 49l90 476h79l-90 -477q-9 -47 -9 -77q0 -29 7 -47.5t21.5 -29.5t35.5 -15t48 -4q32 0 59.5 6.5t50 25t39.5 52.5t28 89l90 477h71zM331 770l16 84
h74l-16 -84h-74zM496 770l16 84h74l-16 -84h-74z" />
    <glyph glyph-name="Yacute" unicode="&#xdd;" horiz-adv-x="518" 
d="M335 254l-48 -254h-78l52 275l-123 425h91l91 -361h7l226 361h82zM386 740h-41l89 138h86z" />
    <glyph glyph-name="Thorn" unicode="&#xde;" horiz-adv-x="474" 
d="M288 700l-22 -113h66q33 0 56.5 -2t40.5 -6t29.5 -11.5t23.5 -17.5q40 -38 40 -105q0 -24 -6 -54q-13 -66 -43 -111.5t-76 -73.5q-29 -17 -65 -25t-87 -8h-57l-32 -173h-79l133 700h78zM434 393q5 28 5 46q0 50 -29 68t-78 18h-77l-55 -289h74q31 0 56.5 7t46 25
t34.5 48.5t23 76.5z" />
    <glyph glyph-name="germandbls" unicode="&#xdf;" horiz-adv-x="502" 
d="M485 162q-8 -42 -26 -72.5t-43.5 -50.5t-55.5 -29.5t-62 -9.5h-82l13 67q12 -1 24.5 -1.5t26.5 -0.5t26.5 1t25.5 5q26 7 46.5 30t28.5 61q1 5 1 15q0 20 -8.5 36.5t-19.5 30.5q-10 12 -21.5 24.5t-21.5 26t-16.5 29t-6.5 33.5q0 5 0.5 9t1.5 9q5 31 20.5 52t32.5 41
q19 23 34.5 47.5t20.5 52.5q2 7 2 13v11q0 19 -6 30.5t-16 18.5t-23 9.5t-26 2.5q-47 0 -67.5 -31t-31.5 -90l-101 -532h-78l104 552q16 83 67 121.5t118 38.5q26 0 51 -4.5t44.5 -16t31.5 -32t12 -52.5q0 -8 -1 -17.5t-3 -19.5q-4 -23 -10 -39.5t-13.5 -28.5t-16.5 -22.5
t-20 -21.5l-6 -6q-12 -14 -25.5 -28t-18.5 -41q-1 -3 -1 -8q0 -12 6 -22.5t14 -19t16 -15t12 -11.5q9 -11 18 -21t16.5 -22.5t12 -28t4.5 -35.5q0 -19 -4 -38z" />
    <glyph glyph-name="agrave" unicode="&#xe0;" horiz-adv-x="489" 
d="M411 3q-17 -3 -39 -5.5t-45.5 -4.5t-47 -3t-43.5 -1q-41 0 -73 4.5t-54.5 17.5t-34.5 35t-12 58q0 23 6 55q10 52 32.5 83t52.5 48q39 22 84 26t85 4q24 0 45 -1.5t27 -2.5q4 18 9.5 49t5.5 59q0 29 -26 42.5t-86 13.5q-32 0 -65 -5.5t-66 -11.5l-11 -2l11 57
q79 18 151 18q39 0 70 -4t53 -16t33.5 -34t11.5 -58q0 -25 -6 -59zM384 263q-8 1 -27.5 2t-42.5 1q-32 0 -59.5 -4t-49 -16t-36 -34t-21.5 -57q-3 -18 -3 -33q0 -28 10.5 -44t27.5 -24.5t38.5 -11t42.5 -2.5q6 0 16 0.5t21 1.5t22.5 2.5t19.5 2.5zM348 597l-82 137h86
l38 -137h-42z" />
    <glyph glyph-name="aacute" unicode="&#xe1;" horiz-adv-x="489" 
d="M411 3q-17 -3 -39 -5.5t-45.5 -4.5t-47 -3t-43.5 -1q-41 0 -73 4.5t-54.5 17.5t-34.5 35t-12 58q0 23 6 55q10 52 32.5 83t52.5 48q39 22 84 26t85 4q24 0 45 -1.5t27 -2.5q4 18 9.5 49t5.5 59q0 29 -26 42.5t-86 13.5q-32 0 -65 -5.5t-66 -11.5l-11 -2l11 57
q79 18 151 18q39 0 70 -4t53 -16t33.5 -34t11.5 -58q0 -25 -6 -59zM384 263q-8 1 -27.5 2t-42.5 1q-32 0 -59.5 -4t-49 -16t-36 -34t-21.5 -57q-3 -18 -3 -33q0 -28 10.5 -44t27.5 -24.5t38.5 -11t42.5 -2.5q6 0 16 0.5t21 1.5t22.5 2.5t19.5 2.5zM332 597h-41l90 137h85z
" />
    <glyph glyph-name="acircumflex" unicode="&#xe2;" horiz-adv-x="489" 
d="M411 3q-17 -3 -39 -5.5t-45.5 -4.5t-47 -3t-43.5 -1q-41 0 -73 4.5t-54.5 17.5t-34.5 35t-12 58q0 23 6 55q10 52 32.5 83t52.5 48q39 22 84 26t85 4q24 0 45 -1.5t27 -2.5q4 18 9.5 49t5.5 59q0 29 -26 42.5t-86 13.5q-32 0 -65 -5.5t-66 -11.5l-11 -2l11 57
q79 18 151 18q39 0 70 -4t53 -16t33.5 -34t11.5 -58q0 -25 -6 -59zM384 263q-8 1 -27.5 2t-42.5 1q-32 0 -59.5 -4t-49 -16t-36 -34t-21.5 -57q-3 -18 -3 -33q0 -28 10.5 -44t27.5 -24.5t38.5 -11t42.5 -2.5q6 0 16 0.5t21 1.5t22.5 2.5t19.5 2.5zM420 597l-58 116
l-104 -116h-50l117 147h88l57 -147h-50z" />
    <glyph glyph-name="atilde" unicode="&#xe3;" horiz-adv-x="489" 
d="M411 3q-17 -3 -39 -5.5t-45.5 -4.5t-47 -3t-43.5 -1q-41 0 -73 4.5t-54.5 17.5t-34.5 35t-12 58q0 23 6 55q10 52 32.5 83t52.5 48q39 22 84 26t85 4q24 0 45 -1.5t27 -2.5q4 18 9.5 49t5.5 59q0 29 -26 42.5t-86 13.5q-32 0 -65 -5.5t-66 -11.5l-11 -2l11 57
q79 18 151 18q39 0 70 -4t53 -16t33.5 -34t11.5 -58q0 -25 -6 -59zM384 263q-8 1 -27.5 2t-42.5 1q-32 0 -59.5 -4t-49 -16t-36 -34t-21.5 -57q-3 -18 -3 -33q0 -28 10.5 -44t27.5 -24.5t38.5 -11t42.5 -2.5q6 0 16 0.5t21 1.5t22.5 2.5t19.5 2.5zM502 722q-12 -51 -36 -80
t-55 -29q-21 0 -38 7t-31.5 16t-27 16t-23.5 7q-19 0 -30 -14.5t-18 -36.5h-31q12 51 36 79.5t57 28.5q19 0 35.5 -7t30.5 -15.5t27 -15.5t25 -7q18 0 29 14t19 37h31z" />
    <glyph glyph-name="adieresis" unicode="&#xe4;" horiz-adv-x="489" 
d="M411 3q-17 -3 -39 -5.5t-45.5 -4.5t-47 -3t-43.5 -1q-41 0 -73 4.5t-54.5 17.5t-34.5 35t-12 58q0 23 6 55q10 52 32.5 83t52.5 48q39 22 84 26t85 4q24 0 45 -1.5t27 -2.5q4 18 9.5 49t5.5 59q0 29 -26 42.5t-86 13.5q-32 0 -65 -5.5t-66 -11.5l-11 -2l11 57
q79 18 151 18q39 0 70 -4t53 -16t33.5 -34t11.5 -58q0 -25 -6 -59zM384 263q-8 1 -27.5 2t-42.5 1q-32 0 -59.5 -4t-49 -16t-36 -34t-21.5 -57q-3 -18 -3 -33q0 -28 10.5 -44t27.5 -24.5t38.5 -11t42.5 -2.5q6 0 16 0.5t21 1.5t22.5 2.5t19.5 2.5zM226 649l16 85h75l-16 -85
h-75zM390 649l16 85h75l-16 -85h-75z" />
    <glyph glyph-name="aring" unicode="&#xe5;" horiz-adv-x="489" 
d="M411 3q-17 -3 -39 -5.5t-45.5 -4.5t-47 -3t-43.5 -1q-41 0 -73 4.5t-54.5 17.5t-34.5 35t-12 58q0 23 6 55q10 52 32.5 83t52.5 48q39 22 84 26t85 4q24 0 45 -1.5t27 -2.5q4 18 9.5 49t5.5 59q0 29 -26 42.5t-86 13.5q-32 0 -65 -5.5t-66 -11.5l-11 -2l11 57
q79 18 151 18q39 0 70 -4t53 -16t33.5 -34t11.5 -58q0 -25 -6 -59zM384 263q-8 1 -27.5 2t-42.5 1q-32 0 -59.5 -4t-49 -16t-36 -34t-21.5 -57q-3 -18 -3 -33q0 -28 10.5 -44t27.5 -24.5t38.5 -11t42.5 -2.5q6 0 16 0.5t21 1.5t22.5 2.5t19.5 2.5zM466 689q0 -24 -9 -46
t-24.5 -38.5t-38 -26.5t-49.5 -10q-39 0 -62 19t-23 55q0 24 8.5 45.5t24.5 38.5t38.5 27t50.5 10q40 0 62 -19.5t22 -54.5zM353 610q13 0 24 6.5t18.5 16.5t11.5 22.5t4 25.5q0 22 -11.5 31t-25.5 9q-26 0 -42 -22.5t-16 -48.5q0 -20 10.5 -30t26.5 -10z" />
    <glyph glyph-name="ae" unicode="&#xe6;" horiz-adv-x="721" 
d="M421 236q-2 -12 -3.5 -25t-1.5 -27q0 -26 6 -51t20 -45t38.5 -32.5t61.5 -12.5q19 0 38.5 2t36.5 5t29 5.5t16 3.5l-10 -54q-20 -5 -55 -11t-76 -6q-37 0 -74 8.5t-63 36.5q-26 -13 -47.5 -21.5t-42 -13.5t-41.5 -7t-46 -2q-29 0 -55.5 4.5t-46.5 17t-32 34.5t-12 57
q0 19 5 47q9 46 28 73t46 41.5t61.5 19t74.5 4.5h79l9 43q5 25 7.5 45.5t2.5 37.5v11q0 27 -21 40.5t-67 13.5q-29 0 -67.5 -5.5t-70.5 -12.5l11 58q16 4 35 7.5t37.5 5.5t35.5 3.5t30 1.5q39 0 65 -8t41.5 -19t23 -22.5t9.5 -18.5q27 30 66 49t94 19q42 0 69 -12t43 -31.5
t22.5 -46t6.5 -54.5v-6q0 -35 -6 -70.5t-15 -79.5h-295zM651 329q5 26 5 53q0 19 -3.5 37.5t-12.5 33t-24 23t-38 8.5q-39 0 -64 -19.5t-42 -48.5q-19 -32 -28.5 -68.5t-15.5 -60.5h216zM233 46q32 0 65.5 9t56.5 22q-15 36 -15 92q0 14 1 30.5t3 34.5h-68q-22 0 -43 -1.5
t-39 -9.5q-17 -8 -29 -25t-18 -47q-2 -10 -3 -18.5t-1 -16.5q0 -38 22.5 -54t67.5 -16z" />
    <glyph glyph-name="ccedilla" unicode="&#xe7;" horiz-adv-x="449" 
d="M390 4q-20 -5 -44 -8t-53 -5l-39 -41q14 2 22.5 3t16.5 1q27 0 41 -17.5t14 -43.5q0 -5 -0.5 -10t-1.5 -10q-6 -29 -18.5 -48t-29.5 -29.5t-36.5 -14.5t-38.5 -4q-29 0 -49.5 5t-40.5 16l23 48q19 -8 31 -11.5t24 -3.5q21 0 42.5 9t26.5 33q1 3 1 8q0 9 -4.5 14.5
t-10 7.5t-10.5 2.5t-7 0.5q-7 0 -20 -2.5t-29 -8.5l-7 33l40 67q-71 11 -108 58.5t-37 128.5q0 35 8 81q24 128 99 199.5t193 71.5q27 0 56.5 -3t44.5 -5l-11 -56q-17 3 -42 5t-41 2q-53 0 -90 -16t-63 -44.5t-41.5 -67.5t-24.5 -85q-4 -20 -6 -38t-2 -35q0 -69 34 -105
t105 -36q9 0 23 1.5t28 3.5t26 4t18 4z" />
    <glyph glyph-name="egrave" unicode="&#xe8;" horiz-adv-x="505" 
d="M175 236q-2 -11 -3 -22t-1 -22q0 -22 4.5 -44t15.5 -42q15 -27 44.5 -45t78.5 -18q37 0 72 5.5t58 10.5l-10 -54q-21 -5 -59.5 -11t-82.5 -6q-26 0 -52.5 3.5t-50.5 12.5t-44.5 26t-33.5 44q-20 40 -20 103q0 21 2.5 45.5t7.5 52.5q3 16 9 40t16.5 50.5t26.5 54t40 51.5
q29 29 71 47t100 18q48 0 78.5 -13.5t48 -35t24 -50t6.5 -58.5v-4q-1 -38 -8.5 -75.5t-12.5 -63.5h-325zM427 287q4 23 7.5 46t3.5 50q0 19 -4.5 37.5t-14 32.5t-26.5 22.5t-42 8.5q-45 0 -74.5 -22t-47.5 -53.5t-27.5 -65t-15.5 -56.5h241zM380 597l-82 137h86l38 -137h-42
z" />
    <glyph glyph-name="eacute" unicode="&#xe9;" horiz-adv-x="505" 
d="M175 236q-2 -11 -3 -22t-1 -22q0 -22 4.5 -44t15.5 -42q15 -27 44.5 -45t78.5 -18q37 0 72 5.5t58 10.5l-10 -54q-21 -5 -59.5 -11t-82.5 -6q-26 0 -52.5 3.5t-50.5 12.5t-44.5 26t-33.5 44q-20 40 -20 103q0 21 2.5 45.5t7.5 52.5q3 16 9 40t16.5 50.5t26.5 54t40 51.5
q29 29 71 47t100 18q48 0 78.5 -13.5t48 -35t24 -50t6.5 -58.5v-4q-1 -38 -8.5 -75.5t-12.5 -63.5h-325zM427 287q4 23 7.5 46t3.5 50q0 19 -4.5 37.5t-14 32.5t-26.5 22.5t-42 8.5q-45 0 -74.5 -22t-47.5 -53.5t-27.5 -65t-15.5 -56.5h241zM367 597h-41l90 137h85z" />
    <glyph glyph-name="ecircumflex" unicode="&#xea;" horiz-adv-x="505" 
d="M175 236q-2 -11 -3 -22t-1 -22q0 -22 4.5 -44t15.5 -42q15 -27 44.5 -45t78.5 -18q37 0 72 5.5t58 10.5l-10 -54q-21 -5 -59.5 -11t-82.5 -6q-26 0 -52.5 3.5t-50.5 12.5t-44.5 26t-33.5 44q-20 40 -20 103q0 21 2.5 45.5t7.5 52.5q3 16 9 40t16.5 50.5t26.5 54t40 51.5
q29 29 71 47t100 18q48 0 78.5 -13.5t48 -35t24 -50t6.5 -58.5v-4q-1 -38 -8.5 -75.5t-12.5 -63.5h-325zM427 287q4 23 7.5 46t3.5 50q0 19 -4.5 37.5t-14 32.5t-26.5 22.5t-42 8.5q-45 0 -74.5 -22t-47.5 -53.5t-27.5 -65t-15.5 -56.5h241zM453 597l-58 116l-104 -116h-50
l117 147h88l57 -147h-50z" />
    <glyph glyph-name="edieresis" unicode="&#xeb;" horiz-adv-x="505" 
d="M175 236q-2 -11 -3 -22t-1 -22q0 -22 4.5 -44t15.5 -42q15 -27 44.5 -45t78.5 -18q37 0 72 5.5t58 10.5l-10 -54q-21 -5 -59.5 -11t-82.5 -6q-26 0 -52.5 3.5t-50.5 12.5t-44.5 26t-33.5 44q-20 40 -20 103q0 21 2.5 45.5t7.5 52.5q3 16 9 40t16.5 50.5t26.5 54t40 51.5
q29 29 71 47t100 18q48 0 78.5 -13.5t48 -35t24 -50t6.5 -58.5v-4q-1 -38 -8.5 -75.5t-12.5 -63.5h-325zM427 287q4 23 7.5 46t3.5 50q0 19 -4.5 37.5t-14 32.5t-26.5 22.5t-42 8.5q-45 0 -74.5 -22t-47.5 -53.5t-27.5 -65t-15.5 -56.5h241zM258 649l16 85h75l-16 -85h-75z
M423 649l16 85h75l-16 -85h-75z" />
    <glyph glyph-name="igrave" unicode="&#xec;" horiz-adv-x="224" 
d="M72 0l100 525h75l-99 -525h-76zM220 597l-82 137h86l38 -137h-42z" />
    <glyph glyph-name="iacute" unicode="&#xed;" horiz-adv-x="224" 
d="M72 0l100 525h75l-99 -525h-76zM221 597h-41l90 137h85z" />
    <glyph glyph-name="icircumflex" unicode="&#xee;" horiz-adv-x="224" 
d="M72 0l100 525h75l-99 -525h-76zM300 597l-58 116l-104 -116h-50l117 147h88l57 -147h-50z" />
    <glyph glyph-name="idieresis" unicode="&#xef;" horiz-adv-x="224" 
d="M72 0l100 525h75l-99 -525h-76zM110 649l16 85h75l-16 -85h-75zM274 649l16 85h75l-16 -85h-75z" />
    <glyph glyph-name="eth" unicode="&#xf0;" horiz-adv-x="508" 
d="M526 258q-10 -54 -30 -104t-52 -88.5t-77 -62t-105 -23.5q-78 0 -123 46t-45 133q0 35 7 70q11 61 35 108.5t57 80t74 49.5t86 17q19 0 35 -6t28.5 -15t21.5 -19t15 -18l10 6q-15 65 -37.5 105.5t-50.5 69.5l-180 -63l-9 53l144 51q-11 9 -22 17.5t-22 16.5l47 56
q21 -14 40 -29.5t36 -32.5l102 36l9 -53l-72 -26q42 -54 65.5 -120.5t23.5 -145.5q0 -26 -3 -53t-8 -56zM442 233q6 30 6 58q0 53 -24.5 89t-76.5 36q-34 0 -62 -14.5t-49.5 -40t-36.5 -59.5t-22 -73q-6 -33 -6 -63q0 -56 24 -91t78 -35q32 0 59.5 16t49.5 42.5t37.5 61.5
t22.5 73z" />
    <glyph glyph-name="ntilde" unicode="&#xf1;" horiz-adv-x="525" 
d="M371 0l65 345q4 19 7 37.5t3 35.5q-1 23 -13.5 38t-47.5 15q-16 0 -36.5 -4t-42 -10t-42 -13.5t-36.5 -15.5l-81 -428h-75l100 525h68l-8 -47q7 3 27 12.5t47 19.5t57 18t56 8q28 0 47.5 -8t32 -22.5t18 -34.5t5.5 -43q0 -21 -5 -49l-72 -379h-74zM531 722
q-12 -51 -36 -80t-55 -29q-21 0 -38 7t-31.5 16t-27 16t-23.5 7q-19 0 -30 -14.5t-18 -36.5h-31q12 51 36 79.5t57 28.5q19 0 35.5 -7t30.5 -15.5t27 -15.5t25 -7q18 0 29 14t19 37h31z" />
    <glyph glyph-name="ograve" unicode="&#xf2;" horiz-adv-x="533" 
d="M523 263q-11 -58 -30 -108t-50.5 -87.5t-76.5 -59t-107 -21.5q-48 0 -80.5 13t-53 36t-29 55t-8.5 71q0 23 3 48.5t8 52.5q11 57 30 107.5t50.5 87.5t76.5 58.5t107 21.5q48 0 80.5 -13t53 -36t29 -55t8.5 -71q0 -45 -11 -100zM442 262q5 26 9 53t4 53q0 24 -4.5 45
t-16.5 36.5t-31.5 24.5t-49.5 9q-47 0 -77 -20.5t-49.5 -53t-30 -71.5t-17.5 -76q-5 -26 -8.5 -53t-3.5 -53q0 -24 4.5 -45t16.5 -36.5t31.5 -24.5t49.5 -9q46 0 76 20.5t49.5 53t30 71.5t17.5 76zM383 597l-82 137h86l38 -137h-42z" />
    <glyph glyph-name="oacute" unicode="&#xf3;" horiz-adv-x="533" 
d="M523 263q-11 -58 -30 -108t-50.5 -87.5t-76.5 -59t-107 -21.5q-48 0 -80.5 13t-53 36t-29 55t-8.5 71q0 23 3 48.5t8 52.5q11 57 30 107.5t50.5 87.5t76.5 58.5t107 21.5q48 0 80.5 -13t53 -36t29 -55t8.5 -71q0 -45 -11 -100zM442 262q5 26 9 53t4 53q0 24 -4.5 45
t-16.5 36.5t-31.5 24.5t-49.5 9q-47 0 -77 -20.5t-49.5 -53t-30 -71.5t-17.5 -76q-5 -26 -8.5 -53t-3.5 -53q0 -24 4.5 -45t16.5 -36.5t31.5 -24.5t49.5 -9q46 0 76 20.5t49.5 53t30 71.5t17.5 76zM371 597h-41l90 137h85z" />
    <glyph glyph-name="ocircumflex" unicode="&#xf4;" horiz-adv-x="533" 
d="M523 263q-11 -58 -30 -108t-50.5 -87.5t-76.5 -59t-107 -21.5q-48 0 -80.5 13t-53 36t-29 55t-8.5 71q0 23 3 48.5t8 52.5q11 57 30 107.5t50.5 87.5t76.5 58.5t107 21.5q48 0 80.5 -13t53 -36t29 -55t8.5 -71q0 -45 -11 -100zM442 262q5 26 9 53t4 53q0 24 -4.5 45
t-16.5 36.5t-31.5 24.5t-49.5 9q-47 0 -77 -20.5t-49.5 -53t-30 -71.5t-17.5 -76q-5 -26 -8.5 -53t-3.5 -53q0 -24 4.5 -45t16.5 -36.5t31.5 -24.5t49.5 -9q46 0 76 20.5t49.5 53t30 71.5t17.5 76zM457 597l-58 116l-104 -116h-50l117 147h88l57 -147h-50z" />
    <glyph glyph-name="otilde" unicode="&#xf5;" horiz-adv-x="533" 
d="M523 263q-11 -58 -30 -108t-50.5 -87.5t-76.5 -59t-107 -21.5q-48 0 -80.5 13t-53 36t-29 55t-8.5 71q0 23 3 48.5t8 52.5q11 57 30 107.5t50.5 87.5t76.5 58.5t107 21.5q48 0 80.5 -13t53 -36t29 -55t8.5 -71q0 -45 -11 -100zM442 262q5 26 9 53t4 53q0 24 -4.5 45
t-16.5 36.5t-31.5 24.5t-49.5 9q-47 0 -77 -20.5t-49.5 -53t-30 -71.5t-17.5 -76q-5 -26 -8.5 -53t-3.5 -53q0 -24 4.5 -45t16.5 -36.5t31.5 -24.5t49.5 -9q46 0 76 20.5t49.5 53t30 71.5t17.5 76zM527 722q-12 -51 -36 -80t-55 -29q-21 0 -38 7t-31.5 16t-27 16t-23.5 7
q-19 0 -30 -14.5t-18 -36.5h-31q12 51 36 79.5t57 28.5q19 0 35.5 -7t30.5 -15.5t27 -15.5t25 -7q18 0 29 14t19 37h31z" />
    <glyph glyph-name="odieresis" unicode="&#xf6;" horiz-adv-x="533" 
d="M523 263q-11 -58 -30 -108t-50.5 -87.5t-76.5 -59t-107 -21.5q-48 0 -80.5 13t-53 36t-29 55t-8.5 71q0 23 3 48.5t8 52.5q11 57 30 107.5t50.5 87.5t76.5 58.5t107 21.5q48 0 80.5 -13t53 -36t29 -55t8.5 -71q0 -45 -11 -100zM442 262q5 26 9 53t4 53q0 24 -4.5 45
t-16.5 36.5t-31.5 24.5t-49.5 9q-47 0 -77 -20.5t-49.5 -53t-30 -71.5t-17.5 -76q-5 -26 -8.5 -53t-3.5 -53q0 -24 4.5 -45t16.5 -36.5t31.5 -24.5t49.5 -9q46 0 76 20.5t49.5 53t30 71.5t17.5 76zM260 649l16 85h75l-16 -85h-75zM426 649l16 85h75l-16 -85h-75z" />
    <glyph glyph-name="divide" unicode="&#xf7;" 
d="M74 304l14 78h470l-15 -78h-469zM338 167q0 -14 -5 -29t-14.5 -28.5t-23 -22t-29.5 -8.5q-21 0 -33 16t-12 39q0 13 5 28.5t14.5 29t22.5 22t30 8.5q21 0 33 -16t12 -39zM411 553q0 -14 -5 -29t-14.5 -28.5t-23 -22t-29.5 -8.5q-21 0 -33 15.5t-12 38.5q0 14 5 29.5
t14.5 28.5t22.5 21.5t30 8.5q20 0 32.5 -15.5t12.5 -38.5z" />
    <glyph glyph-name="oslash" unicode="&#xf8;" horiz-adv-x="533" 
d="M523 263q-11 -58 -30 -108t-50.5 -87.5t-76.5 -59t-107 -21.5q-48 0 -80.5 13t-53 36t-29 55t-8.5 71q0 23 3 48.5t8 52.5q11 57 30 107.5t50.5 87.5t76.5 58.5t107 21.5q48 0 80.5 -13t53 -36t29 -55t8.5 -71q0 -45 -11 -100zM442 262q5 26 9 52.5t4 52.5q0 5 -0.5 9.5
t-0.5 9.5l-273 -300q11 -20 32 -32.5t56 -12.5q46 0 76 20.5t49.5 53t30 71.5t17.5 76zM439 441q-11 20 -31.5 31t-54.5 11q-47 0 -77 -20.5t-49.5 -53t-30 -71.5t-17.5 -76q-5 -26 -8.5 -53t-3.5 -53v-14z" />
    <glyph glyph-name="ugrave" unicode="&#xf9;" horiz-adv-x="525" 
d="M374 0l8 47q-12 -7 -32.5 -17t-45.5 -19t-53 -15.5t-56 -6.5q-56 0 -79.5 30.5t-23.5 77.5q0 21 5 49l72 379h75l-65 -345q-2 -11 -6 -32.5t-4 -37.5q0 -24 12.5 -40t47.5 -16q16 0 36.5 4t42 10t42 13.5t36.5 15.5l81 428h75l-100 -525h-68zM371 597l-82 137h86l38 -137
h-42z" />
    <glyph glyph-name="uacute" unicode="&#xfa;" horiz-adv-x="525" 
d="M374 0l8 47q-12 -7 -32.5 -17t-45.5 -19t-53 -15.5t-56 -6.5q-56 0 -79.5 30.5t-23.5 77.5q0 21 5 49l72 379h75l-65 -345q-2 -11 -6 -32.5t-4 -37.5q0 -24 12.5 -40t47.5 -16q16 0 36.5 4t42 10t42 13.5t36.5 15.5l81 428h75l-100 -525h-68zM364 597h-41l90 137h85z" />
    <glyph glyph-name="ucircumflex" unicode="&#xfb;" horiz-adv-x="525" 
d="M374 0l8 47q-12 -7 -32.5 -17t-45.5 -19t-53 -15.5t-56 -6.5q-56 0 -79.5 30.5t-23.5 77.5q0 21 5 49l72 379h75l-65 -345q-2 -11 -6 -32.5t-4 -37.5q0 -24 12.5 -40t47.5 -16q16 0 36.5 4t42 10t42 13.5t36.5 15.5l81 428h75l-100 -525h-68zM445 597l-58 116l-104 -116
h-50l117 147h88l57 -147h-50z" />
    <glyph glyph-name="udieresis" unicode="&#xfc;" horiz-adv-x="525" 
d="M374 0l8 47q-12 -7 -32.5 -17t-45.5 -19t-53 -15.5t-56 -6.5q-56 0 -79.5 30.5t-23.5 77.5q0 21 5 49l72 379h75l-65 -345q-2 -11 -6 -32.5t-4 -37.5q0 -24 12.5 -40t47.5 -16q16 0 36.5 4t42 10t42 13.5t36.5 15.5l81 428h75l-100 -525h-68zM260 649l16 85h75l-16 -85
h-75zM424 649l16 85h75l-16 -85h-75z" />
    <glyph glyph-name="yacute" unicode="&#xfd;" horiz-adv-x="470" 
d="M182 -220h-76l114 220h-47l-60 525h83l44 -461h12l215 461h80zM341 597h-41l90 137h85z" />
    <glyph glyph-name="thorn" unicode="&#xfe;" horiz-adv-x="530" 
d="M519 270q-13 -66 -41 -116.5t-67 -85t-87 -52t-99 -17.5h-28q-16 0 -45 1l-30 -161h-76l173 911h75l-51 -271q25 22 47 34t39.5 18t29 7t16.5 1q78 0 116 -43.5t38 -127.5q0 -22 -2.5 -46.5t-7.5 -51.5zM439 273q5 25 7.5 46.5t2.5 40.5q0 120 -102 120q-14 0 -26 -2
t-25.5 -8t-28.5 -17.5t-35 -29.5l-70 -370q15 -3 20 -3.5t12 -0.5q40 0 78.5 9t71.5 34t57.5 68.5t37.5 112.5z" />
    <glyph glyph-name="ydieresis" unicode="&#xff;" horiz-adv-x="470" 
d="M182 -220h-76l114 220h-47l-60 525h83l44 -461h12l215 461h80zM229 649l16 85h75l-16 -85h-75zM394 649l16 85h75l-16 -85h-75z" />
    <glyph glyph-name="dotlessi" unicode="&#x131;" horiz-adv-x="224" 
d="M72 0l100 525h75l-99 -525h-76z" />
    <glyph glyph-name="IJ" unicode="&#x132;" horiz-adv-x="486" 
d="M77 0l132 700h79l-133 -700h-78zM402 47q-8 -46 -28.5 -81t-62.5 -70l-120 -103l-36 46l101 91q16 15 27.5 28t19 26.5t12.5 28t8 32.5l124 655h79z" />
    <glyph glyph-name="ij" unicode="&#x133;" horiz-adv-x="466" 
d="M72 0l100 525h75l-99 -525h-76zM198 665l16 85h75l-16 -85h-75zM397 41q-9 -46 -29.5 -80.5t-62.5 -70.5l-119 -103l-33 46l102 91q16 15 27 28t18.5 26.5t12.5 28t8 32.5l93 486h75zM439 665l16 85h75l-16 -85h-75z" />
    <glyph glyph-name="Lslash" unicode="&#x141;" horiz-adv-x="461" 
d="M94 0l67 359l-75 -27l-6 53l92 33l54 282h78l-47 -253l146 52l6 -53l-164 -58l-61 -325h266l-12 -63h-344z" />
    <glyph glyph-name="lslash" unicode="&#x142;" horiz-adv-x="274" 
d="M246 404l-77 -404h-74l71 376l-97 -33l-4 46l110 38l61 323h75l-56 -296l94 33l5 -47z" />
    <glyph glyph-name="OE" unicode="&#x152;" horiz-adv-x="700" 
d="M273 0q-81 0 -125 49t-44 158q0 61 15 142q18 97 46.5 164.5t65.5 108.5t81 59.5t93 18.5h381l-12 -62h-219l-46 -244h178l-11 -62h-179l-51 -270h224l-12 -62h-385zM367 59q15 76 28.5 148t26.5 143t26.5 143t27.5 148h-29q-33 0 -68 -5t-64 -26q-35 -25 -64 -87
t-50 -174q-16 -86 -16 -145q0 -44 8.5 -72t23.5 -43q21 -21 54 -25.5t66 -4.5h30z" />
    <glyph glyph-name="oe" unicode="&#x153;" horiz-adv-x="726" 
d="M454 235q-2 -14 -3.5 -28t-1.5 -29q0 -25 5 -49.5t18 -43.5t34 -31t54 -12q34 0 63.5 6t44.5 10l-10 -54q-20 -6 -53 -11.5t-66 -5.5q-74 0 -111 28.5t-49 78.5q-19 -31 -39 -51.5t-40.5 -32.5t-41 -17t-39.5 -5q-66 0 -98.5 45.5t-32.5 127.5q0 23 3 48.5t8 54.5
q24 128 81.5 199.5t142.5 71.5q20 0 38 -4t33.5 -14.5t28.5 -30t23 -50.5q32 46 71 72.5t100 26.5q37 0 61.5 -11.5t38.5 -31t19.5 -45.5t5.5 -54q0 -45 -8 -87t-13 -71h-267zM379 264q11 53 11 101t-15.5 81t-53.5 33q-29 0 -51.5 -18.5t-40.5 -48.5t-30.5 -68.5
t-20.5 -79.5q-5 -25 -7.5 -49.5t-2.5 -47.5q0 -51 16 -86.5t55 -35.5q29 0 51.5 19t40 50t29 70.5t19.5 79.5zM650 286q4 17 8 44.5t4 58.5q0 18 -3 35t-10.5 30t-20.5 21t-32 8q-34 0 -57 -20.5t-38 -49.5q-17 -32 -26 -67.5t-15 -59.5h190z" />
    <glyph glyph-name="Scaron" unicode="&#x160;" horiz-adv-x="502" 
d="M490 204q-11 -56 -37 -97t-62.5 -67.5t-82 -39t-96.5 -12.5q-22 0 -44 2t-42 4.5t-37 5t-27 4.5l13 68q6 -1 23.5 -4t40 -6t45.5 -5.5t40 -2.5q70 0 119.5 34t60.5 94q3 15 3 27q0 28 -12 47t-29 32t-37 21t-35 15q-10 4 -24.5 9.5t-30.5 14t-32 20t-29 28.5
q-13 16 -21 37t-8 49q0 20 4 39q9 48 31 83.5t54.5 59.5t73 36t86.5 12q50 0 85.5 -4.5t55.5 -8.5l-11 -63q-11 2 -26 4t-31.5 3.5t-32.5 2.5t-28 1q-28 0 -56.5 -4t-53 -16.5t-42.5 -35t-25 -59.5q-2 -7 -2 -13v-11q0 -25 10 -42.5t27 -30.5t39 -23t46 -19l10 -4
q24 -9 52.5 -22.5t49.5 -37.5q13 -16 21 -37t8 -49q0 -20 -4 -39zM435 740h-88l-61 148h49l60 -117l103 117h50z" />
    <glyph glyph-name="scaron" unicode="&#x161;" horiz-adv-x="413" 
d="M395 187q0 -15 -3 -31q-8 -43 -28.5 -74.5t-49 -52t-64 -30.5t-74.5 -10q-49 0 -85 5t-47 7l12 60q17 -3 54.5 -8t75.5 -5q27 0 50.5 8.5t41 23t27 34.5t9.5 43t-11.5 37t-28.5 24q-18 10 -38.5 16.5t-37.5 14.5q-36 16 -58.5 42.5t-22.5 67.5q0 40 16.5 72.5t44 56
t62.5 36t72 12.5q48 0 79.5 -3.5t45.5 -5.5l-11 -56q-22 3 -53.5 5t-52.5 2q-22 0 -44 -6t-40 -18t-29.5 -30.5t-11.5 -43.5q0 -27 18 -43q14 -13 33 -20.5t37 -14.5q28 -11 52 -23t40 -31q9 -11 14.5 -26t5.5 -35zM376 597h-89l-61 147h50l60 -116l103 116h49z" />
    <glyph glyph-name="Ydieresis" unicode="&#x178;" horiz-adv-x="518" 
d="M335 254l-48 -254h-78l52 275l-123 425h91l91 -361h7l226 361h82zM278 770l16 84h74l-16 -84h-74zM443 770l16 84h74l-16 -84h-74z" />
    <glyph glyph-name="Zcaron" unicode="&#x17d;" horiz-adv-x="466" 
d="M28 0l19 97l422 540h-310l12 63h378l-20 -101l-419 -535h331l-12 -64h-401zM413 740h-88l-61 148h49l60 -117l103 117h50z" />
    <glyph glyph-name="zcaron" unicode="&#x17e;" horiz-adv-x="432" 
d="M41 0l14 73l363 391h-274l11 61h337l-19 -97l-340 -367h271l-12 -61h-351zM390 597h-89l-61 147h50l60 -116l103 116h49z" />
    <glyph glyph-name="longs" unicode="&#x17f;" horiz-adv-x="364" 
d="M193 0h-75l118 621q5 24 14.5 48t26.5 42q16 17 40.5 28t62.5 11h87l-10 -55h-64q-24 0 -38.5 -6t-23.5 -17t-13.5 -26.5t-8.5 -34.5z" />
    <glyph glyph-name="florin" unicode="&#x192;" horiz-adv-x="417" 
d="M400 646h-11q-32 0 -51.5 -2t-32.5 -14q-11 -10 -18.5 -27.5t-16.5 -48.5l-24 -84h104l-17 -54h-103l-174 -605h-74l176 605h-55l17 54h54l24 80q14 47 29 76.5t33.5 46t43 22t57.5 5.5h55z" />
    <glyph glyph-name="uni02BB" unicode="&#x2bb;" horiz-adv-x="273" 
d="M243 489h-84l93 223h42z" />
    <glyph glyph-name="afii57929" unicode="&#x2bc;" horiz-adv-x="263" 
d="M201 488h-42l51 223h84z" />
    <glyph glyph-name="circumflex" unicode="&#x2c6;" horiz-adv-x="247" 
d="M320 622l-59 117l-104 -117h-49l116 148h89l56 -148h-49z" />
    <glyph glyph-name="caron" unicode="&#x2c7;" horiz-adv-x="247" 
d="M285 622h-89l-61 148h50l60 -117l103 117h49z" />
    <glyph glyph-name="breve" unicode="&#x2d8;" horiz-adv-x="246" 
d="M379 780q-17 -72 -54.5 -109.5t-97.5 -37.5q-98 0 -98 105q0 19 3 42h44q-1 -6 -1.5 -11.5t-0.5 -10.5q0 -21 6 -34.5t15 -21.5t20.5 -11t22.5 -3t25 3.5t28 14t26 28t19 46.5h43z" />
    <glyph glyph-name="dotaccent" unicode="&#x2d9;" horiz-adv-x="171" 
d="M152 657l19 102h86l-19 -102h-86z" />
    <glyph glyph-name="ring" unicode="&#x2da;" horiz-adv-x="246" 
d="M340 706q-8 -45 -41 -69t-80 -24q-40 0 -63.5 19t-23.5 54q0 5 0.5 10t1.5 10q9 47 42 70.5t79 23.5q42 0 64.5 -18.5t22.5 -53.5q0 -5 -0.5 -10.5t-1.5 -11.5zM283 706q1 4 1 7v7q0 20 -11.5 28t-26.5 8q-18 0 -34 -12t-21 -38q-1 -4 -1 -12q0 -19 10.5 -28t26.5 -9
t33.5 11t22.5 38z" />
    <glyph glyph-name="ogonek" unicode="&#x2db;" horiz-adv-x="280" 
d="M178 -204q-19 -10 -36.5 -16t-32.5 -6q-38 0 -58.5 24t-20.5 53q0 25 11.5 50t30 49t40.5 45.5t43 38.5l27 -29q-24 -18 -41 -37.5t-28 -38.5t-16.5 -36t-5.5 -29q0 -17 9.5 -29.5t20.5 -12.5q10 0 19.5 3.5t26.5 11.5z" />
    <glyph glyph-name="tilde" unicode="&#x2dc;" horiz-adv-x="241" 
d="M394 750q-12 -51 -36 -80t-55 -29q-21 0 -38.5 7t-31.5 16t-26.5 16t-23.5 7q-19 0 -30 -15t-18 -36h-31q12 51 35.5 79.5t57.5 28.5q19 0 35.5 -7t30.5 -15.5t27 -15.5t25 -7q18 0 29 14t18 37h32z" />
    <glyph glyph-name="hungarumlaut" unicode="&#x2dd;" horiz-adv-x="403" 
d="M195 631h-40l90 148h84zM345 631h-40l91 148h83z" />
    <glyph glyph-name="gravecomb" unicode="&#x300;" horiz-adv-x="1" 
d="M-149 597l-82 137h86l38 -137h-42z" />
    <glyph glyph-name="acutecomb" unicode="&#x301;" horiz-adv-x="1" 
d="M-161 597h-41l90 137h85z" />
    <glyph glyph-name="uni0302" unicode="&#x302;" horiz-adv-x="1" 
d="M-75 597l-58 116l-104 -116h-50l117 147h88l57 -147h-50z" />
    <glyph glyph-name="tildecomb" unicode="&#x303;" horiz-adv-x="1" 
d="M-5 722q-12 -51 -36 -80t-55 -29q-21 0 -38 7t-31.5 16t-27 16t-23.5 7q-19 0 -30 -14.5t-18 -36.5h-31q12 51 36 79.5t57 28.5q19 0 35.5 -7t30.5 -15.5t27 -15.5t25 -7q18 0 29 14t19 37h31z" />
    <glyph glyph-name="uni0304" unicode="&#x304;" horiz-adv-x="1" 
d="M-172 681l9 52h240l-10 -52h-239z" />
    <glyph glyph-name="uni0306" unicode="&#x306;" horiz-adv-x="1" 
d="M134 744q-17 -72 -54.5 -109.5t-97.5 -37.5q-98 0 -98 105q0 19 3 42h44q-1 -6 -1.5 -11.5t-0.5 -10.5q0 -21 6 -34.5t15 -21.5t20.5 -11t22.5 -3t25 3.5t28 14t26 28t19 46.5h43z" />
    <glyph glyph-name="uni0307" unicode="&#x307;" horiz-adv-x="1" 
d="M-25 665l16 85h75l-16 -85h-75z" />
    <glyph glyph-name="uni0308" unicode="&#x308;" horiz-adv-x="1" 
d="M28 649l16 85h75l-16 -85h-75zM-138 649l16 85h75l-16 -85h-75z" />
    <glyph glyph-name="uni030A" unicode="&#x30a;" horiz-adv-x="1" 
d="M95 669q-8 -45 -41 -69t-80 -24q-40 0 -63.5 19t-23.5 54q0 5 0.5 10t1.5 10q9 47 42 70.5t79 23.5q42 0 64.5 -18.5t22.5 -53.5q0 -5 -0.5 -10.5t-1.5 -11.5zM38 669q1 4 1 7v7q0 20 -11.5 28t-26.5 8q-18 0 -34 -12t-21 -38q-1 -4 -1 -12q0 -19 10.5 -28t26.5 -9
t33.5 11t22.5 38z" />
    <glyph glyph-name="uni030B" unicode="&#x30b;" horiz-adv-x="1" 
d="M-207 597h-40l90 148h84zM-57 597h-40l91 148h83z" />
    <glyph glyph-name="uni030C" unicode="&#x30c;" horiz-adv-x="1" 
d="M-41 597h-89l-61 147h50l60 -116l103 116h49z" />
    <glyph glyph-name="uni0312" unicode="&#x312;" horiz-adv-x="1" 
d="M-121 885h46l-42 -220h-99z" />
    <glyph glyph-name="uni0313" unicode="&#x313;" horiz-adv-x="1" 
d="M-170 480h-46l42 220h99z" />
    <glyph glyph-name="uni0326" unicode="&#x326;" horiz-adv-x="1" 
d="M-192 -241h-42l51 223h85z" />
    <glyph glyph-name="uni0327" unicode="&#x327;" horiz-adv-x="1" 
d="M-52 -127q-6 -30 -19 -48.5t-30 -29t-37 -14.5t-40 -4q-31 0 -52 4.5t-41 15.5l23 46q19 -9 31.5 -12.5t24.5 -3.5q13 0 26.5 3t24 9.5t17 16.5t6.5 25q0 10 -4.5 15.5t-10.5 8t-11.5 3t-7.5 0.5q-7 0 -20 -2.5t-29 -9.5l-9 30l51 83h68l-57 -61q14 2 23 3t18 1
q28 0 42.5 -17t14.5 -43q0 -5 -0.5 -9.5t-1.5 -9.5z" />
    <glyph glyph-name="uni0328" unicode="&#x328;" horiz-adv-x="1" 
d="M-101 -201q-19 -10 -36.5 -16t-32.5 -6q-38 0 -58.5 24t-20.5 53q0 25 11.5 50t30 49t40.5 45.5t43 38.5l27 -29q-24 -18 -41 -37.5t-28 -38.5t-16.5 -36t-5.5 -29q0 -17 9.5 -29.5t20.5 -12.5q10 0 19.5 3.5t26.5 11.5z" />
    <glyph glyph-name="uni0335" unicode="&#x335;" horiz-adv-x="1" 
d="M-172 236l9 52h240l-10 -52h-239z" />
    <glyph glyph-name="uni0336" unicode="&#x336;" horiz-adv-x="1" 
d="M-594 234l10 56h573l-10 -56h-573z" />
    <glyph glyph-name="Delta" unicode="&#x394;" horiz-adv-x="536" 
d="M21 0l334 700h88l60 -700h-482zM376 602l-249 -532h298l-45 532h-4z" />
    <glyph glyph-name="Omega" unicode="&#x3a9;" horiz-adv-x="588" 
d="M331 0l34 178q36 15 65 41.5t50 59t35 67.5t20 67q5 23 6.5 43t1.5 39q0 75 -33 115.5t-98 40.5q-83 0 -136.5 -62.5t-75.5 -175.5q-6 -29 -6 -60q0 -27 4.5 -53t15 -49t27 -42t40.5 -31l-33 -178h-202l14 71l137 -6l15 78q-8 4 -25 16t-34 35t-29.5 58t-12.5 85
q0 17 2 36t6 40q15 81 48 138t75 92.5t89.5 51.5t91.5 16q39 0 75.5 -11.5t64 -37t44 -65.5t16.5 -97q0 -39 -9 -87q-14 -72 -41.5 -121t-57.5 -80.5t-56.5 -47.5t-38.5 -21l-15 -78l144 6l-13 -71h-205z" />
    <glyph glyph-name="mu" unicode="&#x3bc;" horiz-adv-x="527" 
d="M377 -4l15 77q-37 -38 -70.5 -56.5t-76.5 -18.5q-16 0 -28 0.5t-23 1.5l-22 2q-11 1 -25 2l-42 -224h-75l141 745h74l-86 -456q23 -5 38 -6t26 -1q33 0 64 10.5t57.5 36t46.5 68t32 105.5l46 243h75l-100 -529h-67z" />
    <glyph glyph-name="pi" unicode="&#x3c0;" horiz-adv-x="560" 
d="M503 0h-33q-27 0 -47 2t-34 8.5t-21 20.5t-7 38q0 12 2 26.5t5 31.5l63 335h-161l-88 -462h-75l87 462h-88l12 63h484l-12 -63h-84l-63 -334q-4 -19 -4 -33q0 -26 13 -31.5t38 -5.5h23z" />
    <glyph glyph-name="uni2007" unicode="&#x2007;" 
 />
    <glyph glyph-name="uni2008" unicode="&#x2008;" horiz-adv-x="286" 
 />
    <glyph glyph-name="uni200B" unicode="&#x200b;" horiz-adv-x="0" 
 />
    <glyph glyph-name="endash" unicode="&#x2013;" 
d="M79 276l10 56h366l-11 -56h-365z" />
    <glyph glyph-name="emdash" unicode="&#x2014;" horiz-adv-x="674" 
d="M79 276l10 56h573l-10 -56h-573z" />
    <glyph glyph-name="quoteleft" unicode="&#x2018;" horiz-adv-x="273" 
d="M243 489h-84l93 223h42z" />
    <glyph glyph-name="quoteright" unicode="&#x2019;" horiz-adv-x="263" 
d="M201 488h-42l51 223h84z" />
    <glyph glyph-name="quotesinglbase" unicode="&#x201a;" horiz-adv-x="273" 
d="M80 -76h-42l51 223h85z" />
    <glyph glyph-name="quotedblleft" unicode="&#x201c;" horiz-adv-x="436" 
d="M406 489h-82l94 223h45zM236 489h-81l93 223h45z" />
    <glyph glyph-name="quotedblright" unicode="&#x201d;" horiz-adv-x="436" 
d="M370 488h-45l57 223h81zM200 488h-45l57 223h81z" />
    <glyph glyph-name="quotedblbase" unicode="&#x201e;" horiz-adv-x="436" 
d="M84 -77h-45l57 223h82zM254 -77h-45l57 223h81z" />
    <glyph glyph-name="dagger" unicode="&#x2020;" horiz-adv-x="469" 
d="M350 464l-116 -625h-68l120 622h-158l14 69h156l46 250h67l-49 -247h158l-14 -72z" />
    <glyph glyph-name="daggerdbl" unicode="&#x2021;" horiz-adv-x="469" 
d="M349 456l-47 -246h124l-14 -69h-124l-55 -302h-67l59 299h-125l14 69h123l48 246h-158l13 69h157l47 258h67l-51 -255h158l-13 -72z" />
    <glyph glyph-name="bullet" unicode="&#x2022;" horiz-adv-x="422" 
d="M405 347q-6 -32 -22 -61t-38.5 -50.5t-50 -34t-55.5 -12.5q-51 0 -80.5 35.5t-29.5 88.5q0 17 3 34q6 32 22 61t38.5 50.5t49.5 34t56 12.5q51 0 80.5 -35.5t29.5 -88.5q0 -18 -3 -34z" />
    <glyph glyph-name="ellipsis" unicode="&#x2026;" horiz-adv-x="693" 
d="M533 0l18 99h87l-18 -99h-87zM44 0l19 99h87l-19 -99h-87zM288 0l19 99h87l-19 -99h-87z" />
    <glyph glyph-name="perthousand" unicode="&#x2030;" horiz-adv-x="1020" 
d="M978 187q-11 -54 -27.5 -92t-37.5 -61.5t-46 -34t-51 -10.5q-45 0 -70.5 27t-25.5 90q0 34 9 81q10 54 27 91.5t38 61.5t46 34.5t51 10.5q42 0 68.5 -27.5t26.5 -93.5q0 -31 -8 -77zM403 515q-11 -54 -27.5 -92t-37.5 -61.5t-45.5 -34t-51.5 -10.5q-44 0 -69.5 26.5
t-25.5 89.5q0 34 9 82q10 54 26.5 92t37.5 61.5t46 34t51 10.5q42 0 68.5 -27.5t26.5 -92.5q0 -17 -1.5 -36t-6.5 -42zM687 187q-10 -54 -26.5 -92t-37.5 -61.5t-46 -34t-51 -10.5q-45 0 -70.5 27t-25.5 90q0 34 9 81q10 54 27 91.5t38 61.5t46 34.5t51 10.5q42 0 68.5 -27
t26.5 -92q0 -34 -9 -79zM162 -39l-40 35l557 747l39 -36zM916 187q4 20 5.5 37.5t1.5 31.5q0 76 -42 76q-28 0 -52 -37t-38 -108q-4 -21 -6 -39t-2 -33q0 -73 43 -73q28 0 52 34.5t38 110.5zM341 515q4 20 6 37.5t2 32.5q0 75 -43 75q-28 0 -51.5 -37t-37.5 -108
q-4 -22 -6 -40t-2 -33q0 -37 11 -54.5t31 -17.5q29 0 52.5 34.5t37.5 110.5zM626 187q4 20 5.5 37t1.5 31q0 77 -42 77q-28 0 -51.5 -37t-37.5 -108q-4 -22 -6 -40t-2 -33q0 -37 11 -54.5t31 -17.5q28 0 52 34.5t38 110.5z" />
    <glyph glyph-name="guilsinglleft" unicode="&#x2039;" horiz-adv-x="360" 
d="M191 293l47 -233h-78l-56 233l144 232h78z" />
    <glyph glyph-name="guilsinglright" unicode="&#x203a;" horiz-adv-x="360" 
d="M137 60h-78l134 233l-46 232h78l55 -232z" />
    <glyph glyph-name="fraction" unicode="&#x2044;" horiz-adv-x="52" 
d="M-170 -42l-42 34l560 755l44 -32z" />
    <glyph glyph-name="uni2070" unicode="&#x2070;" horiz-adv-x="385" 
d="M417 515q-20 -103 -65.5 -145.5t-108.5 -42.5q-51 0 -80 27t-29 91q0 15 1.5 32.5t5.5 37.5q19 103 65 145.5t108 42.5q51 0 80.5 -27.5t29.5 -92.5q0 -15 -1.5 -31.5t-5.5 -36.5zM353 515q6 34 6 61q0 79 -54 79q-36 0 -61.5 -35.5t-38.5 -104.5q-4 -20 -5.5 -36
t-1.5 -30q0 -39 14 -56.5t40 -17.5q36 0 61.5 33t39.5 107z" />
    <glyph glyph-name="uni2074" unicode="&#x2074;" horiz-adv-x="385" 
d="M309 328l13 67h-194l15 75l217 231h76l-241 -255h137l16 88l49 53h24l-49 -259h-63z" />
    <glyph glyph-name="uni2075" unicode="&#x2075;" horiz-adv-x="385" 
d="M391 456q-6 -31 -22 -55t-38.5 -40.5t-49.5 -25t-56 -8.5q-20 0 -42 2.5t-52 9.5l14 53q26 -5 45.5 -9t39.5 -4q37 0 62.5 19t32.5 56q1 5 1.5 9t0.5 8q0 27 -18.5 36.5t-47.5 9.5q-11 0 -23 -2l-24 -4l-41 -8l47 197h204l-12 -52h-144l-19 -82q18 3 28 4t21 1
q42 0 68.5 -24t26.5 -67v-12q0 -5 -2 -12z" />
    <glyph glyph-name="uni2076" unicode="&#x2076;" horiz-adv-x="385" 
d="M417 465q-6 -33 -21.5 -58.5t-37 -43.5t-49 -27.5t-57.5 -9.5q-33 0 -55 8.5t-35.5 23.5t-19 35t-5.5 43q0 11 1 21.5t3 21.5q17 87 78.5 151t158.5 112l15 -46l-9 -5q-35 -19 -74.5 -43.5t-68.5 -60.5l5 -5q16 11 32 17t36 6q50 0 78.5 -27.5t28.5 -76.5q0 -19 -4 -36z
M353 464q2 6 2 12v11q0 29 -15.5 47t-47.5 18q-38 0 -61 -25t-30 -61q-1 -6 -1.5 -11.5t-0.5 -10.5q0 -29 15.5 -49t46.5 -20q38 0 61 25.5t31 63.5z" />
    <glyph glyph-name="uni2077" unicode="&#x2077;" horiz-adv-x="385" 
d="M224 331h-60l221 317h-209l9 52h270l-8 -45z" />
    <glyph glyph-name="uni2078" unicode="&#x2078;" horiz-adv-x="385" 
d="M416 436q-6 -30 -23.5 -51t-41 -34t-49.5 -19t-48 -6q-18 0 -39.5 4t-39.5 13.5t-30 25t-12 38.5q0 4 0.5 8t1.5 9q7 39 31.5 59.5t64.5 36.5l2 9q-23 10 -39.5 27t-16.5 42v6q0 4 1 8q5 25 18.5 45t33.5 33.5t45 21t52 7.5q48 0 79 -20.5t31 -58.5q0 -4 -0.5 -8t-1.5 -9
q-5 -29 -28.5 -49t-63.5 -34l-2 -9q39 -15 58 -30.5t19 -43.5q0 -5 -0.5 -10t-1.5 -11zM349 433q1 4 1 12q0 12 -5 19.5t-13 13.5q-11 8 -23.5 12t-26.5 9q-12 -5 -25 -9t-24 -12q-26 -16 -33 -48q-1 -4 -1 -12q0 -14 6 -22.5t15.5 -13.5t21 -7t21.5 -2t23.5 2t26 8.5
t22.5 18t14 31.5zM372 619q1 4 1 11q0 23 -16.5 32.5t-40.5 9.5q-27 0 -51 -16t-24 -45q0 -20 18 -32t40 -19q10 2 21.5 6.5t22 12t18.5 17.5t11 23z" />
    <glyph glyph-name="uni2079" unicode="&#x2079;" horiz-adv-x="385" 
d="M156 596q6 33 21.5 58.5t37.5 43.5t49.5 27.5t57.5 9.5q32 0 54 -9t35.5 -24t19.5 -35.5t6 -42.5q0 -23 -4 -42q-17 -87 -79 -151t-159 -112l-14 46l9 5q35 19 74 43.5t68 60.5l-4 5q-17 -11 -32.5 -17t-36.5 -6q-50 0 -78 27.5t-28 77.5q0 17 3 35zM220 597
q-1 -6 -1.5 -11.5t-0.5 -10.5q0 -29 16 -47.5t48 -18.5q38 0 61 25t30 61q2 6 2 12v11q0 29 -16 48.5t-46 19.5q-38 0 -61.5 -25.5t-31.5 -63.5z" />
    <glyph glyph-name="uni2080" unicode="&#x2080;" horiz-adv-x="385" 
d="M325 32q-20 -103 -65.5 -145.5t-108.5 -42.5q-51 0 -80 27t-29 91q0 15 1.5 32.5t5.5 37.5q19 103 65 145.5t108 42.5q51 0 80.5 -27.5t29.5 -92.5q0 -15 -1.5 -31.5t-5.5 -36.5zM261 32q6 34 6 61q0 79 -54 79q-36 0 -61.5 -35.5t-38.5 -104.5q-4 -20 -5.5 -36t-1.5 -30
q0 -39 14 -56.5t40 -17.5q36 0 61.5 33t39.5 107z" />
    <glyph glyph-name="uni2081" unicode="&#x2081;" horiz-adv-x="385" 
d="M65 -152l11 56h76l47 251h-76l10 50l143 15l-60 -316h79l-11 -56h-219z" />
    <glyph glyph-name="uni2082" unicode="&#x2082;" horiz-adv-x="385" 
d="M38 -152l16 84q36 25 69.5 46t60.5 41q27 21 45.5 46.5t23.5 48.5q1 4 1 12q0 23 -17 31t-37 8t-40.5 -4t-48.5 -11l11 59q51 12 89 12q20 0 40.5 -3.5t37 -13.5t27 -26.5t10.5 -41.5q0 -13 -3 -26q-5 -26 -20 -49t-35.5 -42.5t-44.5 -35.5t-46 -28l-72 -41l-2 -12h184
l-10 -54h-239z" />
    <glyph glyph-name="uni2083" unicode="&#x2083;" horiz-adv-x="385" 
d="M298 -44q-6 -33 -24 -54.5t-41 -35t-49 -19t-48 -5.5q-14 0 -39 2.5t-55 10.5l11 57q29 -9 47 -12.5t35 -3.5q15 0 29.5 3t27.5 10t22.5 19t12.5 30q1 4 1 12q0 46 -90 46l9 45q52 1 75 17t28 42q1 4 1 12q0 37 -55 37q-23 0 -45.5 -5t-45.5 -11l11 54q30 8 53 11t49 3
q19 0 37.5 -4t33.5 -13t24.5 -23.5t9.5 -35.5q0 -5 -0.5 -10t-1.5 -10q-6 -32 -29.5 -49t-58.5 -29l-2 -12q29 -8 48.5 -21.5t19.5 -42.5q0 -10 -1 -15z" />
    <glyph glyph-name="uni2084" unicode="&#x2084;" horiz-adv-x="385" 
d="M218 -152l13 67h-194l15 75l217 231h76l-241 -255h137l16 88l49 53h24l-49 -259h-63z" />
    <glyph glyph-name="uni2085" unicode="&#x2085;" horiz-adv-x="385" 
d="M300 -29q-6 -31 -22 -55t-38.5 -40.5t-49.5 -25t-56 -8.5q-20 0 -42 2.5t-52 9.5l14 53q26 -5 45.5 -9t39.5 -4q37 0 62.5 19t32.5 56q1 5 1.5 9t0.5 8q0 27 -18.5 36.5t-47.5 9.5q-11 0 -23 -2l-24 -4l-41 -8l47 197h204l-12 -52h-144l-19 -82q18 3 28 4t21 1
q42 0 68.5 -24t26.5 -67v-12q0 -5 -2 -12z" />
    <glyph glyph-name="uni2086" unicode="&#x2086;" horiz-adv-x="385" 
d="M324 -18q-6 -33 -21.5 -58.5t-37 -43.5t-49 -27.5t-57.5 -9.5q-33 0 -55 8.5t-35.5 23.5t-19 35t-5.5 43q0 11 1 21.5t3 21.5q17 87 78.5 151t158.5 112l15 -46l-9 -5q-35 -19 -74.5 -43.5t-68.5 -60.5l5 -5q16 11 32 17t36 6q50 0 78.5 -27.5t28.5 -76.5q0 -19 -4 -36z
M260 -19q2 6 2 12v11q0 29 -15.5 47t-47.5 18q-38 0 -61 -25t-30 -61q-1 -6 -1.5 -11.5t-0.5 -10.5q0 -29 15.5 -49t46.5 -20q38 0 61 25.5t31 63.5z" />
    <glyph glyph-name="uni2087" unicode="&#x2087;" horiz-adv-x="385" 
d="M131 -152h-60l221 317h-209l9 52h270l-8 -45z" />
    <glyph glyph-name="uni2088" unicode="&#x2088;" horiz-adv-x="385" 
d="M324 -46q-6 -30 -23.5 -51t-41 -34t-49.5 -19t-48 -6q-18 0 -39.5 4t-39.5 13.5t-30 25t-12 38.5q0 4 0.5 8t1.5 9q7 39 31.5 59.5t64.5 36.5l2 9q-23 10 -39.5 27t-16.5 42v6q0 4 1 8q5 25 18.5 45t33.5 33.5t45 21t52 7.5q48 0 79 -20.5t31 -58.5q0 -4 -0.5 -8t-1.5 -9
q-5 -29 -28.5 -49t-63.5 -34l-2 -9q39 -15 58 -30.5t19 -43.5q0 -5 -0.5 -10t-1.5 -11zM257 -49q1 4 1 12q0 12 -5 19.5t-13 13.5q-11 8 -23.5 12t-26.5 9q-12 -5 -25 -9t-24 -12q-26 -16 -33 -48q-1 -4 -1 -12q0 -14 6 -22.5t15.5 -13.5t21 -7t21.5 -2t23.5 2t26 8.5
t22.5 18t14 31.5zM280 137q1 4 1 11q0 23 -16.5 32.5t-40.5 9.5q-27 0 -51 -16t-24 -45q0 -20 18 -32t40 -19q10 2 21.5 6.5t22 12t18.5 17.5t11 23z" />
    <glyph glyph-name="uni2089" unicode="&#x2089;" horiz-adv-x="385" 
d="M64 116q6 33 21.5 58.5t37.5 43.5t49.5 27.5t57.5 9.5q32 0 54 -9t35.5 -24t19.5 -35.5t6 -42.5q0 -23 -4 -42q-17 -87 -79 -151t-159 -112l-14 46l9 5q35 19 74 43.5t68 60.5l-4 5q-17 -11 -32.5 -17t-36.5 -6q-50 0 -78 27.5t-28 77.5q0 17 3 35zM128 117
q-1 -6 -1.5 -11.5t-0.5 -10.5q0 -29 16 -47.5t48 -18.5q38 0 61 25t30 61q2 6 2 12v11q0 29 -16 48.5t-46 19.5q-38 0 -61.5 -25.5t-31.5 -63.5z" />
    <glyph glyph-name="Euro" unicode="&#x20ac;" horiz-adv-x="504" 
d="M474 6q-38 -10 -67.5 -13.5t-64.5 -3.5q-114 0 -174.5 63t-60.5 185q0 6 0.5 12t0.5 13h-94l35 60h66q2 14 5 32t8 36h-89l34 60h73q44 126 130 193.5t209 67.5q68 0 120 -11l-11 -62q-20 5 -48.5 7.5t-50.5 2.5q-55 0 -98 -14.5t-75 -40.5t-55 -62.5t-39 -80.5h273
l-34 -60h-257q-4 -17 -7.5 -34t-5.5 -34h236l-34 -60h-208v-16q0 -95 43.5 -145t137.5 -50q34 0 58 4.5t56 12.5z" />
    <glyph glyph-name="trademark" unicode="&#x2122;" horiz-adv-x="795" 
d="M737 253l39 387h-4l-156 -387h-85v389h-5l-108 -389h-53l128 447h102v-364h5l145 364h91l-41 -447h-58zM327 651l-75 -398h-57l75 398h-114l9 49h284l-9 -49h-113z" />
    <glyph glyph-name="uni2126" unicode="&#x2126;" horiz-adv-x="588" 
d="M331 0l34 178q36 15 65 41.5t50 59t35 67.5t20 67q5 23 6.5 43t1.5 39q0 75 -33 115.5t-98 40.5q-83 0 -136.5 -62.5t-75.5 -175.5q-6 -29 -6 -60q0 -27 4.5 -53t15 -49t27 -42t40.5 -31l-33 -178h-202l14 71l137 -6l15 78q-8 4 -25 16t-34 35t-29.5 58t-12.5 85
q0 17 2 36t6 40q15 81 48 138t75 92.5t89.5 51.5t91.5 16q39 0 75.5 -11.5t64 -37t44 -65.5t16.5 -97q0 -39 -9 -87q-14 -72 -41.5 -121t-57.5 -80.5t-56.5 -47.5t-38.5 -21l-15 -78l144 6l-13 -71h-205z" />
    <glyph glyph-name="uni2150" unicode="&#x2150;" horiz-adv-x="822" 
d="M159 342l11 56h76l47 251h-76l10 50l143 15l-60 -316h79l-11 -56h-219zM203 -42l-42 34l560 755l44 -32zM595 0h-60l221 317h-209l9 52h270l-8 -45z" />
    <glyph glyph-name="uni2151" unicode="&#x2151;" horiz-adv-x="822" 
d="M159 342l11 56h76l47 251h-76l10 50l143 15l-60 -316h79l-11 -56h-219zM215 -42l-42 34l560 755l44 -32zM527 266q6 33 21.5 58.5t37.5 43.5t49.5 27.5t57.5 9.5q32 0 54 -9t35.5 -24t19.5 -35.5t6 -42.5q0 -23 -4 -42q-17 -87 -79 -151t-159 -112l-14 46l9 5
q35 19 74 43.5t68 60.5l-4 5q-17 -11 -32.5 -17t-36.5 -6q-50 0 -78 27.5t-28 77.5q0 17 3 35zM591 267q-1 -6 -1.5 -11.5t-0.5 -10.5q0 -29 16 -47.5t48 -18.5q38 0 61 25t30 61q2 6 2 12v11q0 29 -16 48.5t-46 19.5q-38 0 -61.5 -25.5t-31.5 -63.5z" />
    <glyph glyph-name="uni2152" unicode="&#x2152;" horiz-adv-x="1127" 
d="M159 342l11 56h76l47 251h-76l10 50l143 15l-60 -316h79l-11 -56h-219zM235 -42l-42 34l560 755l44 -32zM529 0l11 56h76l47 251h-76l10 50l143 15l-60 -316h79l-11 -56h-219zM1094 184q-20 -103 -65.5 -145.5t-108.5 -42.5q-51 0 -80 27t-29 91q0 15 1.5 32.5t5.5 37.5
q19 103 65 145.5t108 42.5q51 0 80.5 -27.5t29.5 -92.5q0 -15 -1.5 -31.5t-5.5 -36.5zM1030 184q6 34 6 61q0 79 -54 79q-36 0 -61.5 -35.5t-38.5 -104.5q-4 -20 -5.5 -36t-1.5 -30q0 -39 14 -56.5t40 -17.5q36 0 61.5 33t39.5 107z" />
    <glyph glyph-name="onethird" unicode="&#x2153;" horiz-adv-x="822" 
d="M159 342l11 56h76l47 251h-76l10 50l143 15l-60 -316h79l-11 -56h-219zM222 -42l-42 34l560 755l44 -32zM762 108q-6 -33 -24 -54.5t-41 -35t-49 -19t-48 -5.5q-14 0 -39 2.5t-55 10.5l11 57q29 -9 47 -12.5t35 -3.5q15 0 29.5 3t27.5 10t22.5 19t12.5 30q1 4 1 12
q0 46 -90 46l9 45q52 1 75 17t28 42q1 4 1 12q0 37 -55 37q-23 0 -45.5 -5t-45.5 -11l11 54q30 8 53 11t49 3q19 0 37.5 -4t33.5 -13t24.5 -23.5t9.5 -35.5q0 -5 -0.5 -10t-1.5 -10q-6 -32 -29.5 -49t-58.5 -29l-2 -12q29 -8 48.5 -21.5t19.5 -42.5q0 -10 -1 -15z" />
    <glyph glyph-name="twothirds" unicode="&#x2154;" horiz-adv-x="822" 
d="M132 342l16 84q36 25 69.5 46t60.5 41q27 21 45.5 46.5t23.5 48.5q1 4 1 12q0 23 -17 31t-37 8t-40.5 -4t-48.5 -11l11 59q51 12 89 12q20 0 40.5 -3.5t37 -13.5t27 -26.5t10.5 -41.5q0 -13 -3 -26q-5 -26 -20 -49t-35.5 -42.5t-44.5 -35.5t-46 -28l-72 -41l-2 -12h184
l-10 -54h-239zM221 -42l-42 34l560 755l44 -32zM762 108q-6 -33 -24 -54.5t-41 -35t-49 -19t-48 -5.5q-14 0 -39 2.5t-55 10.5l11 57q29 -9 47 -12.5t35 -3.5q15 0 29.5 3t27.5 10t22.5 19t12.5 30q1 4 1 12q0 46 -90 46l9 45q52 1 75 17t28 42q1 4 1 12q0 37 -55 37
q-23 0 -45.5 -5t-45.5 -11l11 54q30 8 53 11t49 3q19 0 37.5 -4t33.5 -13t24.5 -23.5t9.5 -35.5q0 -5 -0.5 -10t-1.5 -10q-6 -32 -29.5 -49t-58.5 -29l-2 -12q29 -8 48.5 -21.5t19.5 -42.5q0 -10 -1 -15z" />
    <glyph glyph-name="uni2155" unicode="&#x2155;" horiz-adv-x="822" 
d="M159 342l11 56h76l47 251h-76l10 50l143 15l-60 -316h79l-11 -56h-219zM225 -42l-42 34l560 755l44 -32zM764 123q-6 -31 -22 -55t-38.5 -40.5t-49.5 -25t-56 -8.5q-20 0 -42 2.5t-52 9.5l14 53q26 -5 45.5 -9t39.5 -4q37 0 62.5 19t32.5 56q1 5 1.5 9t0.5 8
q0 27 -18.5 36.5t-47.5 9.5q-11 0 -23 -2l-24 -4l-41 -8l47 197h204l-12 -52h-144l-19 -82q18 3 28 4t21 1q42 0 68.5 -24t26.5 -67v-12q0 -5 -2 -12z" />
    <glyph glyph-name="uni2156" unicode="&#x2156;" horiz-adv-x="822" 
d="M132 342l16 84q36 25 69.5 46t60.5 41q27 21 45.5 46.5t23.5 48.5q1 4 1 12q0 23 -17 31t-37 8t-40.5 -4t-48.5 -11l11 59q51 12 89 12q20 0 40.5 -3.5t37 -13.5t27 -26.5t10.5 -41.5q0 -13 -3 -26q-5 -26 -20 -49t-35.5 -42.5t-44.5 -35.5t-46 -28l-72 -41l-2 -12h184
l-10 -54h-239zM215 -42l-42 34l560 755l44 -32zM764 123q-6 -31 -22 -55t-38.5 -40.5t-49.5 -25t-56 -8.5q-20 0 -42 2.5t-52 9.5l14 53q26 -5 45.5 -9t39.5 -4q37 0 62.5 19t32.5 56q1 5 1.5 9t0.5 8q0 27 -18.5 36.5t-47.5 9.5q-11 0 -23 -2l-24 -4l-41 -8l47 197h204
l-12 -52h-144l-19 -82q18 3 28 4t21 1q42 0 68.5 -24t26.5 -67v-12q0 -5 -2 -12z" />
    <glyph glyph-name="uni2157" unicode="&#x2157;" horiz-adv-x="822" 
d="M392 451q-6 -33 -24 -54.5t-41 -35t-49 -19t-48 -5.5q-14 0 -39 2.5t-55 10.5l11 57q29 -9 47 -12.5t35 -3.5q15 0 29.5 3t27.5 10t22.5 19t12.5 30q1 4 1 12q0 46 -90 46l9 45q52 1 75 17t28 42q1 4 1 12q0 37 -55 37q-23 0 -45.5 -5t-45.5 -11l11 54q30 8 53 11t49 3
q19 0 37.5 -4t33.5 -13t24.5 -23.5t9.5 -35.5q0 -5 -0.5 -10t-1.5 -10q-6 -32 -29.5 -49t-58.5 -29l-2 -12q29 -8 48.5 -21.5t19.5 -42.5q0 -10 -1 -15zM205 -42l-42 34l560 755l44 -32zM764 123q-6 -31 -22 -55t-38.5 -40.5t-49.5 -25t-56 -8.5q-20 0 -42 2.5t-52 9.5
l14 53q26 -5 45.5 -9t39.5 -4q37 0 62.5 19t32.5 56q1 5 1.5 9t0.5 8q0 27 -18.5 36.5t-47.5 9.5q-11 0 -23 -2l-24 -4l-41 -8l47 197h204l-12 -52h-144l-19 -82q18 3 28 4t21 1q42 0 68.5 -24t26.5 -67v-12q0 -5 -2 -12z" />
    <glyph glyph-name="uni2158" unicode="&#x2158;" horiz-adv-x="822" 
d="M312 342l13 67h-194l15 75l217 231h76l-241 -255h137l16 88l49 53h24l-49 -259h-63zM222 -42l-42 34l560 755l44 -32zM764 123q-6 -31 -22 -55t-38.5 -40.5t-49.5 -25t-56 -8.5q-20 0 -42 2.5t-52 9.5l14 53q26 -5 45.5 -9t39.5 -4q37 0 62.5 19t32.5 56q1 5 1.5 9t0.5 8
q0 27 -18.5 36.5t-47.5 9.5q-11 0 -23 -2l-24 -4l-41 -8l47 197h204l-12 -52h-144l-19 -82q18 3 28 4t21 1q42 0 68.5 -24t26.5 -67v-12q0 -5 -2 -12z" />
    <glyph glyph-name="uni2159" unicode="&#x2159;" horiz-adv-x="822" 
d="M159 342l11 56h76l47 251h-76l10 50l143 15l-60 -316h79l-11 -56h-219zM235 -42l-42 34l560 755l44 -32zM788 133q-6 -33 -21.5 -58.5t-37 -43.5t-49 -27.5t-57.5 -9.5q-33 0 -55 8.5t-35.5 23.5t-19 35t-5.5 43q0 11 1 21.5t3 21.5q17 87 78.5 151t158.5 112l15 -46
l-9 -5q-35 -19 -74.5 -43.5t-68.5 -60.5l5 -5q16 11 32 17t36 6q50 0 78.5 -27.5t28.5 -76.5q0 -19 -4 -36zM724 132q2 6 2 12v11q0 29 -15.5 47t-47.5 18q-38 0 -61 -25t-30 -61q-1 -6 -1.5 -11.5t-0.5 -10.5q0 -29 15.5 -49t46.5 -20q38 0 61 25.5t31 63.5z" />
    <glyph glyph-name="uni215A" unicode="&#x215a;" horiz-adv-x="822" 
d="M393 462q-6 -31 -22 -55t-38.5 -40.5t-49.5 -25t-56 -8.5q-20 0 -42 2.5t-52 9.5l14 53q26 -5 45.5 -9t39.5 -4q37 0 62.5 19t32.5 56q1 5 1.5 9t0.5 8q0 27 -18.5 36.5t-47.5 9.5q-11 0 -23 -2l-24 -4l-41 -8l47 197h204l-12 -52h-144l-19 -82q18 3 28 4t21 1
q42 0 68.5 -24t26.5 -67v-12q0 -5 -2 -12zM215 -42l-42 34l560 755l44 -32zM788 133q-6 -33 -21.5 -58.5t-37 -43.5t-49 -27.5t-57.5 -9.5q-33 0 -55 8.5t-35.5 23.5t-19 35t-5.5 43q0 11 1 21.5t3 21.5q17 87 78.5 151t158.5 112l15 -46l-9 -5q-35 -19 -74.5 -43.5
t-68.5 -60.5l5 -5q16 11 32 17t36 6q50 0 78.5 -27.5t28.5 -76.5q0 -19 -4 -36zM724 132q2 6 2 12v11q0 29 -15.5 47t-47.5 18q-38 0 -61 -25t-30 -61q-1 -6 -1.5 -11.5t-0.5 -10.5q0 -29 15.5 -49t46.5 -20q38 0 61 25.5t31 63.5z" />
    <glyph glyph-name="oneeighth" unicode="&#x215b;" horiz-adv-x="822" 
d="M159 342l11 56h76l47 251h-76l10 50l143 15l-60 -316h79l-11 -56h-219zM225 -42l-42 34l560 755l44 -32zM788 104q-6 -30 -23.5 -51t-41 -34t-49.5 -19t-48 -6q-18 0 -39.5 4t-39.5 13.5t-30 25t-12 38.5q0 4 0.5 8t1.5 9q7 39 31.5 59.5t64.5 36.5l2 9q-23 10 -39.5 27
t-16.5 42v6q0 4 1 8q5 25 18.5 45t33.5 33.5t45 21t52 7.5q48 0 79 -20.5t31 -58.5q0 -4 -0.5 -8t-1.5 -9q-5 -29 -28.5 -49t-63.5 -34l-2 -9q39 -15 58 -30.5t19 -43.5q0 -5 -0.5 -10t-1.5 -11zM721 101q1 4 1 12q0 12 -5 19.5t-13 13.5q-11 8 -23.5 12t-26.5 9
q-12 -5 -25 -9t-24 -12q-26 -16 -33 -48q-1 -4 -1 -12q0 -14 6 -22.5t15.5 -13.5t21 -7t21.5 -2t23.5 2t26 8.5t22.5 18t14 31.5zM744 287q1 4 1 11q0 23 -16.5 32.5t-40.5 9.5q-27 0 -51 -16t-24 -45q0 -20 18 -32t40 -19q10 2 21.5 6.5t22 12t18.5 17.5t11 23z" />
    <glyph glyph-name="threeeighths" unicode="&#x215c;" horiz-adv-x="822" 
d="M392 451q-6 -33 -24 -54.5t-41 -35t-49 -19t-48 -5.5q-14 0 -39 2.5t-55 10.5l11 57q29 -9 47 -12.5t35 -3.5q15 0 29.5 3t27.5 10t22.5 19t12.5 30q1 4 1 12q0 46 -90 46l9 45q52 1 75 17t28 42q1 4 1 12q0 37 -55 37q-23 0 -45.5 -5t-45.5 -11l11 54q30 8 53 11t49 3
q19 0 37.5 -4t33.5 -13t24.5 -23.5t9.5 -35.5q0 -5 -0.5 -10t-1.5 -10q-6 -32 -29.5 -49t-58.5 -29l-2 -12q29 -8 48.5 -21.5t19.5 -42.5q0 -10 -1 -15zM205 -42l-42 34l560 755l44 -32zM788 104q-6 -30 -23.5 -51t-41 -34t-49.5 -19t-48 -6q-18 0 -39.5 4t-39.5 13.5
t-30 25t-12 38.5q0 4 0.5 8t1.5 9q7 39 31.5 59.5t64.5 36.5l2 9q-23 10 -39.5 27t-16.5 42v6q0 4 1 8q5 25 18.5 45t33.5 33.5t45 21t52 7.5q48 0 79 -20.5t31 -58.5q0 -4 -0.5 -8t-1.5 -9q-5 -29 -28.5 -49t-63.5 -34l-2 -9q39 -15 58 -30.5t19 -43.5q0 -5 -0.5 -10
t-1.5 -11zM721 101q1 4 1 12q0 12 -5 19.5t-13 13.5q-11 8 -23.5 12t-26.5 9q-12 -5 -25 -9t-24 -12q-26 -16 -33 -48q-1 -4 -1 -12q0 -14 6 -22.5t15.5 -13.5t21 -7t21.5 -2t23.5 2t26 8.5t22.5 18t14 31.5zM744 287q1 4 1 11q0 23 -16.5 32.5t-40.5 9.5q-27 0 -51 -16
t-24 -45q0 -20 18 -32t40 -19q10 2 21.5 6.5t22 12t18.5 17.5t11 23z" />
    <glyph glyph-name="fiveeighths" unicode="&#x215d;" horiz-adv-x="822" 
d="M393 462q-6 -31 -22 -55t-38.5 -40.5t-49.5 -25t-56 -8.5q-20 0 -42 2.5t-52 9.5l14 53q26 -5 45.5 -9t39.5 -4q37 0 62.5 19t32.5 56q1 5 1.5 9t0.5 8q0 27 -18.5 36.5t-47.5 9.5q-11 0 -23 -2l-24 -4l-41 -8l47 197h204l-12 -52h-144l-19 -82q18 3 28 4t21 1
q42 0 68.5 -24t26.5 -67v-12q0 -5 -2 -12zM205 -42l-42 34l560 755l44 -32zM788 104q-6 -30 -23.5 -51t-41 -34t-49.5 -19t-48 -6q-18 0 -39.5 4t-39.5 13.5t-30 25t-12 38.5q0 4 0.5 8t1.5 9q7 39 31.5 59.5t64.5 36.5l2 9q-23 10 -39.5 27t-16.5 42v6q0 4 1 8
q5 25 18.5 45t33.5 33.5t45 21t52 7.5q48 0 79 -20.5t31 -58.5q0 -4 -0.5 -8t-1.5 -9q-5 -29 -28.5 -49t-63.5 -34l-2 -9q39 -15 58 -30.5t19 -43.5q0 -5 -0.5 -10t-1.5 -11zM721 101q1 4 1 12q0 12 -5 19.5t-13 13.5q-11 8 -23.5 12t-26.5 9q-12 -5 -25 -9t-24 -12
q-26 -16 -33 -48q-1 -4 -1 -12q0 -14 6 -22.5t15.5 -13.5t21 -7t21.5 -2t23.5 2t26 8.5t22.5 18t14 31.5zM744 287q1 4 1 11q0 23 -16.5 32.5t-40.5 9.5q-27 0 -51 -16t-24 -45q0 -20 18 -32t40 -19q10 2 21.5 6.5t22 12t18.5 17.5t11 23z" />
    <glyph glyph-name="seveneighths" unicode="&#x215e;" horiz-adv-x="822" 
d="M225 342h-60l221 317h-209l9 52h270l-8 -45zM165 -42l-42 34l560 755l44 -32zM788 104q-6 -30 -23.5 -51t-41 -34t-49.5 -19t-48 -6q-18 0 -39.5 4t-39.5 13.5t-30 25t-12 38.5q0 4 0.5 8t1.5 9q7 39 31.5 59.5t64.5 36.5l2 9q-23 10 -39.5 27t-16.5 42v6q0 4 1 8
q5 25 18.5 45t33.5 33.5t45 21t52 7.5q48 0 79 -20.5t31 -58.5q0 -4 -0.5 -8t-1.5 -9q-5 -29 -28.5 -49t-63.5 -34l-2 -9q39 -15 58 -30.5t19 -43.5q0 -5 -0.5 -10t-1.5 -11zM721 101q1 4 1 12q0 12 -5 19.5t-13 13.5q-11 8 -23.5 12t-26.5 9q-12 -5 -25 -9t-24 -12
q-26 -16 -33 -48q-1 -4 -1 -12q0 -14 6 -22.5t15.5 -13.5t21 -7t21.5 -2t23.5 2t26 8.5t22.5 18t14 31.5zM744 287q1 4 1 11q0 23 -16.5 32.5t-40.5 9.5q-27 0 -51 -16t-24 -45q0 -20 18 -32t40 -19q10 2 21.5 6.5t22 12t18.5 17.5t11 23z" />
    <glyph glyph-name="uni215F" unicode="&#x215f;" horiz-adv-x="437" 
d="M159 342l11 56h76l47 251h-76l10 50l143 15l-60 -316h79l-11 -56h-219zM215 -42l-42 34l560 755l44 -32z" />
    <glyph glyph-name="uni2189" unicode="&#x2189;" horiz-adv-x="822" 
d="M418 523q-20 -103 -65.5 -145.5t-108.5 -42.5q-51 0 -80 27t-29 91q0 15 1.5 32.5t5.5 37.5q19 103 65 145.5t108 42.5q51 0 80.5 -27.5t29.5 -92.5q0 -15 -1.5 -31.5t-5.5 -36.5zM354 523q6 34 6 61q0 79 -54 79q-36 0 -61.5 -35.5t-38.5 -104.5q-4 -20 -5.5 -36
t-1.5 -30q0 -39 14 -56.5t40 -17.5q36 0 61.5 33t39.5 107zM199 -42l-42 34l560 755l44 -32zM762 108q-6 -33 -24 -54.5t-41 -35t-49 -19t-48 -5.5q-14 0 -39 2.5t-55 10.5l11 57q29 -9 47 -12.5t35 -3.5q15 0 29.5 3t27.5 10t22.5 19t12.5 30q1 4 1 12q0 46 -90 46l9 45
q52 1 75 17t28 42q1 4 1 12q0 37 -55 37q-23 0 -45.5 -5t-45.5 -11l11 54q30 8 53 11t49 3q19 0 37.5 -4t33.5 -13t24.5 -23.5t9.5 -35.5q0 -5 -0.5 -10t-1.5 -10q-6 -32 -29.5 -49t-58.5 -29l-2 -12q29 -8 48.5 -21.5t19.5 -42.5q0 -10 -1 -15z" />
    <glyph glyph-name="arrowleft" unicode="&#x2190;" horiz-adv-x="896" 
d="M902 323h-732l259 -326q6 -8 6 -18q0 -20 -16 -34q-14 -11 -28 -11q-15 0 -23 11l-328 415l486 415q14 13 33 13q17 0 29 -13q10 -13 10 -25q0 -15 -14 -27l-383 -327h715z" />
    <glyph glyph-name="arrowup" unicode="&#x2191;" horiz-adv-x="916" 
d="M870 286q7 -8 7 -22q0 -17 -13 -29q-14 -11 -28 -11t-23 11l-258 326l-142 -746h-72l142 738l-378 -322q-11 -10 -26 -10q-8 0 -15 3t-12 10q-9 10 -9 24q0 16 13 28l486 415z" />
    <glyph glyph-name="arrowright" unicode="&#x2192;" horiz-adv-x="896" 
d="M371 -55q-21 -18 -38 -18q-13 0 -25 12q-13 13 -13 29q0 8 3 15.5t11 13.5l385 326h-714l14 73h732l-258 327q-6 7 -6 19q0 20 16 33q10 10 26 10q17 0 27 -12l325 -413z" />
    <glyph glyph-name="arrowdown" unicode="&#x2193;" horiz-adv-x="916" 
d="M864 269q8 -11 8 -24q0 -17 -12 -27l-486 -415l-328 415q-9 10 -9 24q0 15 13 27q13 11 27 11t23 -11l259 -327l142 747h71l-142 -746l383 326q14 11 28 11t23 -11z" />
    <glyph glyph-name="uni2196" unicode="&#x2196;" horiz-adv-x="917" 
d="M748 47l-528 529v-463q0 -15 -10.5 -26t-26.5 -11q-15 0 -25.5 11t-10.5 26v587h587q15 0 25.5 -11t10.5 -26t-10.5 -25.5t-25.5 -10.5h-462l528 -528z" />
    <glyph glyph-name="uni2197" unicode="&#x2197;" horiz-adv-x="917" 
d="M805 113q0 -15 -10.5 -25.5t-25.5 -10.5t-26 10.5t-11 25.5v463l-528 -528l-52 51l528 528h-462q-15 0 -25.5 10.5t-10.5 26.5q0 15 10.5 25.5t25.5 10.5h587v-587z" />
    <glyph glyph-name="uni2198" unicode="&#x2198;" horiz-adv-x="917" 
d="M218 0q-15 0 -25.5 10.5t-10.5 25.5q0 16 10.5 26.5t25.5 10.5h462l-528 528l52 51l528 -528v463q0 15 11 25.5t26 10.5t25.5 -10.5t10.5 -25.5v-587h-587z" />
    <glyph glyph-name="uni2199" unicode="&#x2199;" horiz-adv-x="917" 
d="M272 73h462q15 0 25.5 -10.5t10.5 -25.5q0 -16 -10.5 -26.5t-25.5 -10.5h-587v587q0 15 10.5 25.5t25.5 10.5q16 0 26.5 -10.5t10.5 -25.5v-463l528 529l52 -52z" />
    <glyph glyph-name="partialdiff" unicode="&#x2202;" horiz-adv-x="536" 
d="M526 258q-10 -54 -30 -104t-52 -88.5t-77 -62t-105 -23.5q-78 0 -123 46t-45 133q0 35 7 70q23 121 87.5 188t157.5 67q41 0 64 -14.5t43 -43.5l10 6q-12 52 -29 88t-38 62.5t-45 46.5t-49 40l-16 13l47 56q95 -64 149.5 -156t54.5 -215q0 -26 -3 -53t-8 -56zM440 233
q6 30 6 59q0 54 -23.5 89t-75.5 35q-33 0 -60.5 -14.5t-49 -40t-36.5 -59.5t-22 -73q-6 -33 -6 -64q0 -55 23.5 -90t76.5 -35q31 0 58.5 16t49.5 42.5t37 61.5t22 73z" />
    <glyph glyph-name="uni2206" unicode="&#x2206;" horiz-adv-x="536" 
d="M21 0l334 700h88l60 -700h-482zM376 602l-249 -532h298l-45 532h-4z" />
    <glyph glyph-name="product" unicode="&#x220f;" horiz-adv-x="605" 
d="M591 638v-743h-77v743h-204v-743h-79v743h-68v62h497v-62h-69z" />
    <glyph glyph-name="summation" unicode="&#x2211;" horiz-adv-x="496" 
d="M159 -105v73l187 334l-183 325v73h402v-63h-308l181 -335l-184 -345h318v-62h-413z" />
    <glyph glyph-name="minus" unicode="&#x2212;" 
d="M82 314l12 67h470l-13 -67h-469z" />
    <glyph glyph-name="uni2219" unicode="&#x2219;" 
d="M439 347q-6 -32 -22 -61t-38.5 -50.5t-50 -34t-55.5 -12.5q-51 0 -80.5 35.5t-29.5 88.5q0 17 3 34q6 32 22 61t38.5 50.5t49.5 34t56 12.5q51 0 80.5 -35.5t29.5 -88.5q0 -18 -3 -34z" />
    <glyph glyph-name="radical" unicode="&#x221a;" horiz-adv-x="550" 
d="M382 -36h-82l-102 495l-87 -46l-9 41l158 92l91 -472h16l224 708l51 -3z" />
    <glyph glyph-name="infinity" unicode="&#x221e;" horiz-adv-x="795" 
d="M821 351q-9 -50 -31 -87t-50.5 -62t-59.5 -37t-58 -12q-37 0 -66 21.5t-52 50.5l-60 76l-83 -72q-42 -36 -79.5 -56.5t-73.5 -20.5q-21 0 -43 6.5t-40 22.5t-29.5 41.5t-11.5 64.5q0 12 1 25.5t4 28.5q10 52 31 89.5t48 62t57.5 36.5t59.5 12q25 0 45.5 -9t38 -23.5
t31.5 -32.5t27 -35q17 -21 37 -49q28 25 55 49.5t57 45.5q29 20 60.5 37.5t64.5 17.5q21 0 43 -7t40.5 -23t30 -42.5t11.5 -65.5q0 -12 -1 -25t-4 -28zM757 349q3 18 3 36q0 44 -20 69.5t-53 25.5q-17 0 -34.5 -7.5t-34.5 -19.5t-34 -27t-33 -30l-48 -47l58 -80
q15 -21 34 -36t45 -15q25 0 44.5 12t34 31t24 42t14.5 46zM350 423q-15 23 -35.5 37t-46.5 14q-25 0 -44.5 -12t-34.5 -31t-25 -42.5t-14 -45.5q-3 -18 -3 -35q0 -45 20 -70.5t52 -25.5q18 0 37 8.5t37.5 22t36 28.5t31.5 29l43 42z" />
    <glyph glyph-name="integral" unicode="&#x222b;" horiz-adv-x="387" 
d="M436 696q-25 0 -40.5 -2.5t-26 -13.5t-18 -34t-14.5 -64l-98 -523q-6 -29 -11.5 -49.5t-12.5 -36.5t-17 -28.5t-25 -25.5q-20 -18 -44.5 -21t-47.5 -3h-43l10 54h18q24 0 39.5 2.5t26 13.5t17.5 34t15 64l99 523q6 29 11 49.5t12.5 36.5t17.5 28.5t25 25.5q20 17 44 20.5
t48 3.5h42l-10 -54h-17z" />
    <glyph glyph-name="congruent" unicode="&#x2245;" 
d="M593 530q-29 -31 -62 -52.5t-65 -21.5q-36 0 -63.5 12t-51.5 27t-47.5 27t-52.5 12q-11 0 -24.5 -8t-26.5 -19t-25.5 -23t-21.5 -20q-3 16 -5.5 27t-4.5 19t-4 14.5t-4 14.5q26 32 59.5 53.5t71.5 21.5t66.5 -12t52.5 -27t47 -27t49 -12q12 0 32 15t61 56zM130 310l15 75
h382l-15 -75h-382zM91 100l14 75h382l-14 -75h-382z" />
    <glyph glyph-name="approxequal" unicode="&#x2248;" 
d="M566 438q-29 -29 -62.5 -46.5t-62.5 -17.5q-32 0 -56.5 10.5t-46.5 23t-43.5 23t-46.5 10.5q-22 0 -48 -15t-53 -38l-18 67q29 31 62.5 48t69.5 17q34 0 59.5 -10.5t48 -23.5t43 -23.5t44.5 -10.5q6 0 13 1.5t17.5 6.5t25.5 16t36 31zM524 218q-29 -28 -62.5 -46
t-62.5 -18q-31 0 -56 10.5t-47.5 23.5t-43.5 23.5t-45 10.5q-23 0 -48.5 -15t-53.5 -38l-18 66q60 65 132 65q34 0 60 -10.5t48.5 -23.5t43 -23.5t43.5 -10.5q6 0 13 1.5t17.5 7t25.5 16.5t36 30z" />
    <glyph glyph-name="notequal" unicode="&#x2260;" 
d="M253 177l-125 -200l-36 20l112 180h-125l13 68h155l83 134h-213l13 69h244l113 182l37 -20l-101 -162h142l-13 -69h-172l-84 -134h231l-13 -68h-261z" />
    <glyph glyph-name="lessequal" unicode="&#x2264;" 
d="M264 380l154 -261h-94l-158 261l257 261h96zM82 0l12 63h350l-12 -63h-350z" />
    <glyph glyph-name="greaterequal" unicode="&#x2265;" 
d="M221 119h-94l252 261l-156 261h96l158 -261zM82 0l12 63h350l-12 -63h-350z" />
    <glyph glyph-name="dotmath" unicode="&#x22c5;" 
d="M266 294l19 104h91l-19 -104h-91z" />
    <glyph glyph-name="lozenge" unicode="&#x25ca;" horiz-adv-x="536" 
d="M287 0h-53l-89 389l238 375h55l89 -378zM400 714l-195 -325l66 -338l195 335z" />
    <glyph glyph-name="female" unicode="&#x2640;" horiz-adv-x="617" 
d="M592 451q-10 -51 -36.5 -97.5t-65.5 -82.5t-88.5 -60.5t-103.5 -32.5l-21 -111h122l-12 -64h-123l-23 -123h-63l24 123h-123l12 64h123l21 111q-45 7 -81 26.5t-61.5 48.5t-39 66.5t-13.5 80.5q0 23 5 51q11 57 42 107t75 87.5t98 59.5t111 22q50 0 91.5 -17t71.5 -47
t46.5 -71t16.5 -89q0 -13 -1.5 -25.5t-3.5 -26.5zM522 451q4 19 4 40q0 36 -12.5 66t-34.5 52.5t-53 35t-68 12.5q-42 0 -82.5 -16t-73.5 -44t-56 -65.5t-31 -80.5q-2 -10 -3 -19.5t-1 -18.5q0 -36 12.5 -66.5t34.5 -53t53 -35t68 -12.5q42 0 82.5 16t73.5 44t56 65.5
t31 79.5z" />
    <glyph glyph-name="uni2641" unicode="&#x2641;" horiz-adv-x="617" 
d="M44 155q10 51 36.5 97.5t65.5 82.5t88.5 60.5t103.5 32.5l21 111h-122l12 64h123l23 123h63l-24 -123h123l-12 -64h-123l-21 -111q45 -7 81 -26.5t61.5 -48.5t39 -66.5t13.5 -80.5q0 -23 -5 -51q-11 -57 -42 -107.5t-75.5 -88t-98 -59t-110.5 -21.5q-50 0 -91.5 17
t-71.5 47t-46.5 71t-16.5 89q0 13 1.5 25.5t3.5 26.5zM114 155q-4 -19 -4 -40q0 -36 12.5 -66t34.5 -52.5t53 -35t68 -12.5q42 0 82.5 16t73.5 44t56 65.5t31 80.5q2 10 3 19.5t1 18.5q0 36 -12.5 66.5t-34.5 53t-53 35t-68 12.5q-42 0 -82.5 -16t-73.5 -44t-56 -65.5
t-31 -79.5z" />
    <glyph glyph-name="male" unicode="&#x2642;" horiz-adv-x="863" 
d="M790 429h-64l33 170l-191 -163q31 -56 31 -120q0 -13 -1.5 -25.5t-3.5 -26.5q-11 -57 -42 -107.5t-75 -88t-97.5 -59.5t-110.5 -22q-50 0 -91 17t-70.5 47t-46 71t-16.5 89q0 13 1.5 26t3.5 27q11 58 42 108.5t75 88t98 59.5t110 22q89 0 158 -60l185 158h-162l12 65h275
zM525 264q4 19 4 40q0 36 -12.5 66.5t-34.5 53t-53 35t-68 12.5q-42 0 -82 -16t-73 -44t-56 -66t-31 -81q-4 -19 -4 -40q0 -36 12 -66.5t34 -53t53 -35t68 -12.5q42 0 82.5 16.5t73.5 44.5t56 65.5t31 80.5z" />
    <glyph glyph-name="uniFEFF" unicode="&#xfeff;" horiz-adv-x="0" 
 />
    <glyph glyph-name="uniFFFD" unicode="&#xfffd;" horiz-adv-x="718" 
d="M375 262v7q0 9 1 16.5t4.5 15.5t10.5 17t20 21q27 24 38 42.5t11 41.5q0 38 -26.5 64t-76.5 26q-51 0 -79.5 -25.5t-28.5 -71.5h45q0 32 18.5 45t44.5 13q27 0 42.5 -14.5t15.5 -38.5q0 -18 -10.5 -30.5t-28.5 -28.5q-20 -17 -33.5 -37.5t-13.5 -49.5v-13h46zM378 184v47
h-53v-47h53zM359 704l354 -354l-354 -354l-354 354z" />
    <glyph glyph-name="nine.oldstyle" horiz-adv-x="519" 
d="M492 264q-15 -82 -48.5 -152.5t-82 -130.5t-110 -109t-133.5 -88l-26 56l20 12q33 19 64.5 39.5t62 47.5t61.5 63.5t63 88.5l-7 6q-31 -29 -59.5 -44t-69.5 -15q-76 0 -116.5 45t-40.5 130q0 19 1.5 39t6.5 42q11 59 35 105t57.5 78t75 48.5t87.5 16.5q47 0 79 -14.5
t52 -40t28.5 -59.5t8.5 -73q0 -45 -9 -91zM416 289q3 14 4 28.5t1 28.5q0 57 -24.5 96.5t-75.5 39.5q-33 0 -60 -14.5t-47.5 -40t-35 -60t-21.5 -73.5q-6 -32 -6 -61q0 -57 24.5 -92t78.5 -35q32 0 59 15t47.5 40t34.5 58.5t21 69.5z" />
    <glyph glyph-name="eight.oldstyle" horiz-adv-x="531" 
d="M497 180q-11 -56 -39 -95t-64 -63t-76 -34.5t-74 -10.5q-28 0 -59 7.5t-56.5 24.5t-42 44t-16.5 67q0 20 4 39q9 45 25.5 75.5t39 51.5t50 35t59.5 26l2 10q-43 21 -68 55.5t-25 83.5q0 20 4 39q19 97 80.5 142.5t148.5 45.5q75 0 117 -31.5t42 -97.5q0 -11 -1.5 -22
t-3.5 -24q-7 -35 -23 -61t-37 -46t-46 -34t-51 -23l-2 -9q25 -13 46.5 -26.5t37 -30.5t24.5 -38.5t9 -51.5q0 -11 -1 -22.5t-4 -25.5zM412 175q2 9 3 17.5t1 16.5q0 24 -7.5 41t-20.5 30q-15 15 -35 26t-46 22q-29 -13 -53.5 -26t-43.5 -30t-32.5 -41.5t-20.5 -61.5
q-2 -11 -3 -21t-1 -18q0 -32 11.5 -51t27.5 -29t33.5 -13t29.5 -3q16 0 39.5 4.5t46.5 19.5t42.5 42.5t28.5 74.5zM461 540q2 12 3.5 22.5t1.5 20.5q0 47 -25 66t-65 19q-21 0 -42 -6t-39 -20.5t-32.5 -38.5t-21.5 -61q-3 -15 -3 -29q0 -45 27.5 -71t63.5 -40q11 2 30 10
t39.5 24t38 41t24.5 63z" />
    <glyph glyph-name="seven.oldstyle" horiz-adv-x="447" 
d="M132 -177h-86l366 631h-318l13 69h393l-16 -85z" />
    <glyph glyph-name="six.oldstyle" horiz-adv-x="520" 
d="M491 229q-11 -59 -35 -105.5t-57.5 -78.5t-75 -48.5t-87.5 -16.5q-47 0 -79 14.5t-52 40t-28.5 59.5t-8.5 73q0 44 9 91q15 82 48.5 153t82 130.5t110 108.5t133.5 88l27 -56l-19 -11q-33 -20 -65 -40t-63 -47t-62 -63.5t-63 -88.5l7 -6q31 29 59.5 43.5t69.5 14.5
q76 0 116.5 -45t40.5 -129q0 -19 -1.5 -39t-6.5 -42zM413 229q6 30 6 58q0 56 -25 92.5t-78 36.5q-33 0 -59.5 -15t-47.5 -40t-35 -58t-21 -70q-3 -14 -4 -28.5t-1 -28.5q0 -57 24.5 -96.5t75.5 -39.5q33 0 60.5 15t48 40.5t34.5 60t22 73.5z" />
    <glyph glyph-name="four.oldstyle" horiz-adv-x="538" 
d="M113 66h251l33 174l75 78h19l-95 -503h-79l35 185h-311l21 111l388 415h94z" />
    <glyph glyph-name="three.oldstyle" horiz-adv-x="468" 
d="M435 21q-11 -57 -39 -96.5t-65 -64t-78.5 -35t-79.5 -10.5q-49 0 -86 6.5t-60 11.5l13 68q26 -6 56.5 -12t65.5 -6q24 0 53.5 4.5t56.5 19.5t48.5 43.5t30.5 75.5q3 18 3 32q0 30 -12.5 49t-33.5 30t-48 15.5t-55 6.5l12 64q36 2 67 9.5t55 23t40.5 40t23.5 61.5
q3 18 3 32q0 48 -31.5 65t-82.5 17q-14 0 -32 -1.5t-36.5 -4t-36 -5.5t-30.5 -5l12 62q9 2 25.5 5t37.5 6t45.5 5.5t48.5 2.5q34 0 63.5 -6.5t52 -21.5t35.5 -39t13 -60q0 -10 -1.5 -21t-3.5 -23q-7 -38 -22.5 -66.5t-36.5 -49t-46 -33t-52 -18.5l-2 -9q24 -3 45 -11t36 -22
t24 -35.5t9 -51.5q0 -20 -5 -48z" />
    <glyph glyph-name="two.oldstyle" horiz-adv-x="474" 
d="M71 0l22 113l139 73q27 14 55.5 33t54 42t43.5 50t24 57q3 16 3 30q0 25 -9.5 39.5t-25.5 22t-37.5 10t-44.5 2.5q-18 0 -37.5 -2.5t-37 -5.5t-31.5 -6t-21 -5l13 65q6 1 19.5 4.5t33 6.5t43.5 5.5t50 2.5q34 0 65.5 -6t55.5 -20.5t38.5 -38t14.5 -58.5q0 -8 -1 -16.5
t-3 -18.5q-9 -49 -33.5 -87t-59 -68.5t-75.5 -55t-83 -45.5l-95 -47l-2 -9h297l-13 -67h-362z" />
    <glyph glyph-name="one.oldstyle" horiz-adv-x="399" 
d="M36 0l13 68h121l73 384h-121l12 63l204 23l-89 -470h124l-13 -68h-324z" />
    <glyph glyph-name="zero.oldstyle" horiz-adv-x="534" 
d="M540 261q-12 -65 -37.5 -117t-61.5 -89.5t-81 -57.5t-97 -20q-85 0 -131 53t-46 147q0 39 9 84q12 66 37.5 118.5t61 89.5t80.5 56.5t97 19.5q86 0 132 -52.5t46 -146.5q0 -39 -9 -85zM456 262q5 26 7.5 49.5t2.5 43.5q0 67 -27 97.5t-80 30.5q-68 0 -113 -52.5
t-67 -168.5q-5 -27 -7.5 -50t-2.5 -43q0 -67 27 -98t80 -31q68 0 113 52.5t67 169.5z" />
    <glyph glyph-name="five.oldstyle" horiz-adv-x="465" 
d="M402 51q-11 -58 -37 -103t-61.5 -75.5t-79 -46.5t-88.5 -16q-33 0 -67.5 2.5t-68.5 13.5l16 69q21 -5 53.5 -11.5t69.5 -6.5q66 0 115 45.5t64 125.5q2 12 3 22.5t1 20.5q0 29 -9 49.5t-24.5 33t-36.5 18t-45 5.5q-19 0 -38.5 -3t-37 -6.5t-31 -7.5t-20.5 -6l82 351h305
l-15 -67h-233l-47 -204q15 4 27 6.5t23 3.5t21.5 1.5t23.5 0.5q61 0 101 -41t40 -117q0 -27 -6 -57z" />
    <glyph glyph-name="glyph337" horiz-adv-x="533" 
d="M383 597l-82 137h86l38 -137h-42z" />
    <glyph glyph-name="glyph338" horiz-adv-x="533" 
d="M371 597h-41l90 137h85z" />
    <glyph glyph-name="glyph339" horiz-adv-x="533" 
d="M457 597l-58 116l-104 -116h-50l117 147h88l57 -147h-50z" />
    <glyph glyph-name="glyph340" horiz-adv-x="442" 
d="M390 597h-89l-61 147h50l60 -116l103 116h49z" />
    <glyph glyph-name="glyph341" horiz-adv-x="489" 
d="M466 689q0 -24 -9 -46t-24.5 -38.5t-38 -26.5t-49.5 -10q-39 0 -62 19t-23 55q0 24 8.5 45.5t24.5 38.5t38.5 27t50.5 10q40 0 62 -19.5t22 -54.5zM353 610q13 0 24 6.5t18.5 16.5t11.5 22.5t4 25.5q0 22 -11.5 31t-25.5 9q-26 0 -42 -22.5t-16 -48.5q0 -20 10.5 -30
t26.5 -10z" />
    <glyph glyph-name="glyph342" horiz-adv-x="533" 
d="M527 722q-12 -51 -36 -80t-55 -29q-21 0 -38 7t-31.5 16t-27 16t-23.5 7q-19 0 -30 -14.5t-18 -36.5h-31q12 51 36 79.5t57 28.5q19 0 35.5 -7t30.5 -15.5t27 -15.5t25 -7q18 0 29 14t19 37h31z" />
    <glyph glyph-name="glyph343" horiz-adv-x="533" 
d="M260 649l16 85h75l-16 -85h-75z" />
    <glyph glyph-name="glyph344" horiz-adv-x="626" 
d="M462 740l-82 138h86l38 -138h-42z" />
    <glyph glyph-name="glyph345" horiz-adv-x="626" 
d="M451 740h-41l89 138h86z" />
    <glyph glyph-name="glyph346" horiz-adv-x="626" 
d="M534 740l-59 117l-104 -117h-49l116 148h89l56 -148h-49z" />
    <glyph glyph-name="glyph347" horiz-adv-x="466" 
d="M413 740h-88l-61 148h49l60 -117l103 117h50z" />
    <glyph glyph-name="glyph348" horiz-adv-x="626" 
d="M608 867q-12 -51 -36 -80t-55 -29q-21 0 -38.5 7t-31.5 16t-26.5 16t-23.5 7q-19 0 -30 -15t-19 -36h-30q12 51 35.5 79.5t57.5 28.5q19 0 35.5 -7t30.5 -15.5t27 -15.5t25 -7q18 0 29 14t18 37h32z" />
    <glyph glyph-name="glyph349" horiz-adv-x="626" 
d="M336 770l16 84h74l-16 -84h-74z" />
    </font>
</defs>
</svg>
